<svg xmlns:mydata="http://www.w3.org/2000/svg" mydata:contrastcolor="ffffff" mydata:template="BlackAndHighlightColorHex1" mydata:presentation="2.5" mydata:layouttype="undefined" mydata:specialfontid="undefined" mydata:id1="000" mydata:id2="008" mydata:companyname="Prof. Dr. Tancan UYSAL" mydata:companytagline="Orthodontist" version="1.1" xmlns="http://www.w3.org/2000/svg" xmlns:xlink="http://www.w3.org/1999/xlink" style="height: 142px;" viewBox="0 0 550 470"><g fill="none" fill-rule="nonzero" stroke="none" stroke-width="1" stroke-linecap="butt" stroke-linejoin="miter" stroke-miterlimit="10" stroke-dasharray="" stroke-dashoffset="0" font-family="none" font-weight="none" font-size="none" text-anchor="none" style="mix-blend-mode: normal"><g data-paper-data="{&quot;isGlobalGroup&quot;:true,&quot;bounds&quot;:{&quot;x&quot;:65.00000000000003,&quot;y&quot;:199.0048151900479,&quot;width&quot;:420,&quot;height&quot;:71.99036961990419}}"><g data-paper-data="{&quot;isSecondaryText&quot;:true}" fill="#ffffff" id="element-id-23736"><path d="M279.50989,264.78791c-0.36969,0 -0.70734,0.0641 -1.01293,0.1923c-0.30559,0.1282 -0.58808,0.32199 -0.84746,0.58137c-0.25938,0.25938 -0.45243,0.54112 -0.57914,0.84523c-0.12671,0.3041 -0.19006,0.641 -0.19006,1.01069c0,0.72746 0.2564,1.34759 0.7692,1.86039c0.5128,0.5128 1.13293,0.7692 1.86039,0.7692c0.72746,0 1.34759,-0.2564 1.86039,-0.7692c0.5128,-0.5128 0.7692,-1.13293 0.7692,-1.86039c0,-0.72448 -0.2564,-1.34312 -0.7692,-1.85592c-0.51578,-0.51578 -1.13591,-0.77367 -1.86039,-0.77367zM283.08757,267.41751c0,0.98684 -0.35031,1.83058 -1.05094,2.53121c-0.69765,0.69765 -1.53989,1.04647 -2.52674,1.04647c-0.98982,0 -1.83356,-0.34882 -2.53121,-1.04647c-0.69765,-0.69765 -1.04647,-1.54138 -1.04647,-2.53121c0,-0.98684 0.34882,-1.82909 1.04647,-2.52674c0.70063,-0.70063 1.54437,-1.05094 2.53121,-1.05094c0.98386,0 1.82611,0.35031 2.52674,1.05094c0.35181,0.35181 0.61491,0.73641 0.78933,1.1538c0.17441,0.4174 0.26162,0.87504 0.26162,1.37293z" data-paper-data="{&quot;glyphName&quot;:&quot;O&quot;,&quot;glyphIndex&quot;:0,&quot;firstGlyphOfWord&quot;:true,&quot;word&quot;:1}" id="element-id-93437"></path><path d="M291.77167,264.78791v2.4999h1.25219c0.17292,0 0.33541,-0.0328 0.48746,-0.09839c0.15205,-0.06559 0.28398,-0.15578 0.39578,-0.27056c0.1118,-0.11478 0.2005,-0.24746 0.26609,-0.39802c0.06559,-0.15056 0.09839,-0.31081 0.09839,-0.48075c0,-0.17292 -0.0328,-0.33541 -0.09839,-0.48746c-0.06559,-0.15205 -0.15503,-0.28472 -0.26833,-0.39802c-0.11329,-0.11329 -0.24597,-0.20274 -0.39802,-0.26833c-0.15205,-0.06559 -0.31305,-0.09839 -0.48299,-0.09839zM290.82359,270.52114v-6.20727c0,-0.06559 0.01193,-0.12745 0.03578,-0.18559c0.02385,-0.05814 0.05739,-0.10882 0.10062,-0.15205c0.04323,-0.04323 0.09317,-0.07677 0.14982,-0.10062c0.05665,-0.02385 0.11926,-0.03578 0.18783,-0.03578h1.72623c0.30112,0 0.5851,0.05814 0.85193,0.17441c0.26684,0.11627 0.49938,0.27429 0.69765,0.47404c0.19826,0.19975 0.35553,0.43305 0.47181,0.69988c0.11627,0.26684 0.17441,0.55081 0.17441,0.85193c0,0.19677 -0.0246,0.38833 -0.07379,0.57466c-0.04919,0.18634 -0.12224,0.36224 -0.21913,0.52771c-0.0969,0.16547 -0.21764,0.31901 -0.36224,0.46063c-0.1446,0.14162 -0.3123,0.26609 -0.50311,0.37342l1.4266,2.28524c0.05068,0.08348 0.07603,0.16994 0.07603,0.25938c0,0.06857 -0.01193,0.13118 -0.03578,0.18783c-0.02385,0.05665 -0.05739,0.10659 -0.10062,0.14982c-0.04323,0.04323 -0.09391,0.07677 -0.15205,0.10062c-0.05814,0.02385 -0.12,0.03578 -0.18559,0.03578c-0.16696,0 -0.30261,-0.07752 -0.40696,-0.23255l-1.57865,-2.52674h-1.33269v2.28524c0,0.13118 -0.04621,0.24298 -0.13864,0.33541c-0.09242,0.09242 -0.20423,0.13864 -0.33541,0.13864c-0.13118,0 -0.24298,-0.04621 -0.33541,-0.13864c-0.09242,-0.09242 -0.13864,-0.20423 -0.13864,-0.33541z" data-paper-data="{&quot;glyphName&quot;:&quot;R&quot;,&quot;glyphIndex&quot;:1,&quot;word&quot;:1}" id="element-id-92098"></path><path d="M307.06386,264.78791h-1.76648v5.73323c0,0.13118 -0.04621,0.24298 -0.13864,0.33541c-0.09242,0.09242 -0.20423,0.13864 -0.33541,0.13864c-0.13118,0 -0.24298,-0.04621 -0.33541,-0.13864c-0.09242,-0.09242 -0.13864,-0.20423 -0.13864,-0.33541v-5.73323h-1.76648c-0.13118,0 -0.24298,-0.04621 -0.33541,-0.13864c-0.09242,-0.09242 -0.13864,-0.20423 -0.13864,-0.33541c0,-0.13118 0.04621,-0.24298 0.13864,-0.33541c0.09242,-0.09242 0.20423,-0.13864 0.33541,-0.13864h4.48104c0.13118,0 0.24298,0.04621 0.33541,0.13864c0.09242,0.09242 0.13864,0.20423 0.13864,0.33541c0,0.13118 -0.04621,0.24298 -0.13864,0.33541c-0.09242,0.09242 -0.20423,0.13864 -0.33541,0.13864z" data-paper-data="{&quot;glyphName&quot;:&quot;T&quot;,&quot;glyphIndex&quot;:2,&quot;word&quot;:1}" id="element-id-16282"></path><path d="M319.87213,270.52114c0,0.13118 -0.04621,0.24298 -0.13864,0.33541c-0.09242,0.09242 -0.20423,0.13864 -0.33541,0.13864c-0.13118,0 -0.24298,-0.04621 -0.33541,-0.13864c-0.09242,-0.09242 -0.13864,-0.20423 -0.13864,-0.33541v-2.62959h-3.18861v2.62959c0,0.13118 -0.04621,0.24298 -0.13864,0.33541c-0.09242,0.09242 -0.20423,0.13864 -0.33541,0.13864c-0.13118,0 -0.24298,-0.04621 -0.33541,-0.13864c-0.09242,-0.09242 -0.13864,-0.20423 -0.13864,-0.33541v-6.20727c0,-0.13118 0.04621,-0.24298 0.13864,-0.33541c0.09242,-0.09242 0.20423,-0.13864 0.33541,-0.13864c0.13118,0 0.24298,0.04621 0.33541,0.13864c0.09242,0.09242 0.13864,0.20423 0.13864,0.33541v2.62959h3.18861v-2.62959c0,-0.13118 0.04621,-0.24298 0.13864,-0.33541c0.09242,-0.09242 0.20423,-0.13864 0.33541,-0.13864c0.13118,0 0.24298,0.04621 0.33541,0.13864c0.09242,0.09242 0.13864,0.20423 0.13864,0.33541z" data-paper-data="{&quot;glyphName&quot;:&quot;H&quot;,&quot;glyphIndex&quot;:3,&quot;word&quot;:1}" id="element-id-26973"></path><path d="M331.23198,264.78791c-0.36969,0 -0.70734,0.0641 -1.01293,0.1923c-0.30559,0.1282 -0.58808,0.32199 -0.84746,0.58137c-0.25938,0.25938 -0.45243,0.54112 -0.57914,0.84523c-0.12671,0.3041 -0.19006,0.641 -0.19006,1.01069c0,0.72746 0.2564,1.34759 0.7692,1.86039c0.5128,0.5128 1.13293,0.7692 1.86039,0.7692c0.72746,0 1.34759,-0.2564 1.86039,-0.7692c0.5128,-0.5128 0.7692,-1.13293 0.7692,-1.86039c0,-0.72448 -0.2564,-1.34312 -0.7692,-1.85592c-0.51578,-0.51578 -1.13591,-0.77367 -1.86039,-0.77367zM334.80966,267.41751c0,0.98684 -0.35031,1.83058 -1.05094,2.53121c-0.69765,0.69765 -1.53989,1.04647 -2.52674,1.04647c-0.98982,0 -1.83356,-0.34882 -2.53121,-1.04647c-0.69765,-0.69765 -1.04647,-1.54138 -1.04647,-2.53121c0,-0.98684 0.34882,-1.82909 1.04647,-2.52674c0.70063,-0.70063 1.54437,-1.05094 2.53121,-1.05094c0.98386,0 1.82611,0.35031 2.52674,1.05094c0.35181,0.35181 0.61491,0.73641 0.78933,1.1538c0.17441,0.4174 0.26162,0.87504 0.26162,1.37293z" data-paper-data="{&quot;glyphName&quot;:&quot;O&quot;,&quot;glyphIndex&quot;:4,&quot;word&quot;:1}" id="element-id-6443"></path><path d="M344.61692,270.0471c0.72448,0 1.34312,-0.2564 1.85592,-0.7692c0.25938,-0.25938 0.45317,-0.54187 0.58137,-0.84746c0.1282,-0.30559 0.1923,-0.64324 0.1923,-1.01293c0,-0.7215 -0.25789,-1.34014 -0.77367,-1.85592c-0.51578,-0.51578 -1.13442,-0.77367 -1.85592,-0.77367h-0.90336v5.25919zM344.61692,263.83983c0.98386,0 1.82611,0.35031 2.52674,1.05094c0.35181,0.35181 0.61491,0.73566 0.78933,1.15157c0.17441,0.41591 0.26162,0.8743 0.26162,1.37517c0,0.98684 -0.35031,1.83058 -1.05094,2.53121c-0.69765,0.69765 -1.53989,1.04647 -2.52674,1.04647h-1.37741c-0.06559,0 -0.12745,-0.01267 -0.18559,-0.03801c-0.05814,-0.02534 -0.10882,-0.05888 -0.15205,-0.10062c-0.04323,-0.04174 -0.07752,-0.09168 -0.10286,-0.14982c-0.02534,-0.05814 -0.03801,-0.12 -0.03801,-0.18559v-6.20727c0,-0.06559 0.01267,-0.12745 0.03801,-0.18559c0.02534,-0.05814 0.05963,-0.10808 0.10286,-0.14982c0.04323,-0.04174 0.09391,-0.07528 0.15205,-0.10062c0.05814,-0.02534 0.12,-0.03801 0.18559,-0.03801z" data-paper-data="{&quot;glyphName&quot;:&quot;D&quot;,&quot;glyphIndex&quot;:5,&quot;word&quot;:1}" id="element-id-97802"></path><path d="M359.67352,264.78791c-0.36969,0 -0.70734,0.0641 -1.01293,0.1923c-0.30559,0.1282 -0.58808,0.32199 -0.84746,0.58137c-0.25938,0.25938 -0.45243,0.54112 -0.57914,0.84523c-0.12671,0.3041 -0.19006,0.641 -0.19006,1.01069c0,0.72746 0.2564,1.34759 0.7692,1.86039c0.5128,0.5128 1.13293,0.7692 1.86039,0.7692c0.72746,0 1.34759,-0.2564 1.86039,-0.7692c0.5128,-0.5128 0.7692,-1.13293 0.7692,-1.86039c0,-0.72448 -0.2564,-1.34312 -0.7692,-1.85592c-0.51578,-0.51578 -1.13591,-0.77367 -1.86039,-0.77367zM363.2512,267.41751c0,0.98684 -0.35031,1.83058 -1.05094,2.53121c-0.69765,0.69765 -1.53989,1.04647 -2.52674,1.04647c-0.98982,0 -1.83356,-0.34882 -2.53121,-1.04647c-0.69765,-0.69765 -1.04647,-1.54138 -1.04647,-2.53121c0,-0.98684 0.34882,-1.82909 1.04647,-2.52674c0.70063,-0.70063 1.54437,-1.05094 2.53121,-1.05094c0.98386,0 1.82611,0.35031 2.52674,1.05094c0.35181,0.35181 0.61491,0.73641 0.78933,1.1538c0.17441,0.4174 0.26162,0.87504 0.26162,1.37293z" data-paper-data="{&quot;glyphName&quot;:&quot;O&quot;,&quot;glyphIndex&quot;:6,&quot;word&quot;:1}" id="element-id-40648"></path><path d="M371.31311,270.52114v-6.20727c0,-0.06559 0.01193,-0.12745 0.03578,-0.18559c0.02385,-0.05814 0.05739,-0.10882 0.10062,-0.15205c0.04323,-0.04323 0.09317,-0.07677 0.14982,-0.10062c0.05665,-0.02385 0.11926,-0.03578 0.18783,-0.03578c0.14013,0 0.26236,0.05814 0.36671,0.17441l3.98911,5.1295v-4.82987c0,-0.13118 0.04621,-0.24298 0.13864,-0.33541c0.09242,-0.09242 0.20423,-0.13864 0.33541,-0.13864c0.13118,0 0.24298,0.04621 0.33541,0.13864c0.09242,0.09242 0.13864,0.20423 0.13864,0.33541v6.20727c0,0.06857 -0.01193,0.13118 -0.03578,0.18783c-0.02385,0.05665 -0.05739,0.10659 -0.10062,0.14982c-0.04323,0.04323 -0.09391,0.07677 -0.15205,0.10062c-0.05814,0.02385 -0.12,0.03578 -0.18559,0.03578c-0.14013,0 -0.26087,-0.05516 -0.36224,-0.16547l-3.99359,-5.1295v4.82092c0,0.13118 -0.04621,0.24298 -0.13864,0.33541c-0.09242,0.09242 -0.20423,0.13864 -0.33541,0.13864c-0.13118,0 -0.24298,-0.04621 -0.33541,-0.13864c-0.09242,-0.09242 -0.13864,-0.20423 -0.13864,-0.33541z" data-paper-data="{&quot;glyphName&quot;:&quot;N&quot;,&quot;glyphIndex&quot;:7,&quot;word&quot;:1}" id="element-id-62552"></path><path d="M389.52525,264.78791h-1.76648v5.73323c0,0.13118 -0.04621,0.24298 -0.13864,0.33541c-0.09242,0.09242 -0.20423,0.13864 -0.33541,0.13864c-0.13118,0 -0.24298,-0.04621 -0.33541,-0.13864c-0.09242,-0.09242 -0.13864,-0.20423 -0.13864,-0.33541v-5.73323h-1.76648c-0.13118,0 -0.24298,-0.04621 -0.33541,-0.13864c-0.09242,-0.09242 -0.13864,-0.20423 -0.13864,-0.33541c0,-0.13118 0.04621,-0.24298 0.13864,-0.33541c0.09242,-0.09242 0.20423,-0.13864 0.33541,-0.13864h4.48104c0.13118,0 0.24298,0.04621 0.33541,0.13864c0.09242,0.09242 0.13864,0.20423 0.13864,0.33541c0,0.13118 -0.04621,0.24298 -0.13864,0.33541c-0.09242,0.09242 -0.20423,0.13864 -0.33541,0.13864z" data-paper-data="{&quot;glyphName&quot;:&quot;T&quot;,&quot;glyphIndex&quot;:8,&quot;word&quot;:1}" id="element-id-75635"></path><path d="M397.45561,270.52114c0,0.13118 -0.04621,0.24298 -0.13864,0.33541c-0.09242,0.09242 -0.20423,0.13864 -0.33541,0.13864c-0.13118,0 -0.24298,-0.04621 -0.33541,-0.13864c-0.09242,-0.09242 -0.13864,-0.20423 -0.13864,-0.33541v-6.20727c0,-0.13118 0.04621,-0.24298 0.13864,-0.33541c0.09242,-0.09242 0.20423,-0.13864 0.33541,-0.13864c0.13118,0 0.24298,0.04621 0.33541,0.13864c0.09242,0.09242 0.13864,0.20423 0.13864,0.33541z" data-paper-data="{&quot;glyphName&quot;:&quot;I&quot;,&quot;glyphIndex&quot;:9,&quot;word&quot;:1}" id="element-id-69422"></path><path d="M405.35378,267.51142c-0.4323,-0.1282 -0.75877,-0.29367 -0.97939,-0.4964c-0.22062,-0.20274 -0.37491,-0.41069 -0.46286,-0.62386c-0.08795,-0.21317 -0.13193,-0.43901 -0.13193,-0.67752c0,-0.29218 0.05516,-0.55678 0.16547,-0.7938c0.11031,-0.23702 0.2728,-0.44796 0.48746,-0.6328h-0.00447c0.34286,-0.29814 0.74535,-0.44721 1.20747,-0.44721c0.14907,0 0.29814,0.01863 0.44721,0.0559c0.14907,0.03727 0.29292,0.09391 0.43156,0.16994c0.13864,0.07603 0.26833,0.17069 0.38907,0.28398c0.12075,0.11329 0.22882,0.24597 0.32423,0.39802c0.04472,0.07752 0.06708,0.16249 0.06708,0.25491c0,0.06857 -0.01193,0.13118 -0.03578,0.18783c-0.02385,0.05665 -0.05739,0.10659 -0.10062,0.14982c-0.04323,0.04323 -0.09391,0.07677 -0.15205,0.10062c-0.05814,0.02385 -0.12,0.03578 -0.18559,0.03578c-0.05963,0 -0.11255,-0.00894 -0.15876,-0.02683c-0.04621,-0.01789 -0.08795,-0.04323 -0.12522,-0.07603c-0.03727,-0.0328 -0.07304,-0.07081 -0.10733,-0.11404c-0.03429,-0.04323 -0.07081,-0.09317 -0.10957,-0.14982c-0.07155,-0.10435 -0.16919,-0.18261 -0.29292,-0.23479c-0.12373,-0.05217 -0.25715,-0.07826 -0.40025,-0.07826c-0.11329,0 -0.2236,0.02311 -0.33094,0.06932c-0.10733,0.04621 -0.20274,0.10957 -0.28621,0.19006c-0.08348,0.0805 -0.15131,0.1759 -0.20348,0.28621c-0.05217,0.11031 -0.07826,0.22957 -0.07826,0.35777c0,0.22957 0.06335,0.41069 0.19006,0.54336c0.12671,0.13267 0.3451,0.24373 0.65516,0.33317c0.52473,0.14907 0.93616,0.35479 1.2343,0.61715c0.29814,0.26236 0.50088,0.52025 0.60821,0.77367c0.10733,0.25342 0.161,0.52025 0.161,0.80051c0,0.69765 -0.25789,1.26411 -0.77367,1.6994h0.00447c-0.41441,0.35181 -0.88548,0.52771 -1.41318,0.52771c-0.1759,0 -0.35181,-0.02162 -0.52771,-0.06485c-0.1759,-0.04323 -0.3451,-0.10659 -0.50758,-0.19006c-0.16249,-0.08348 -0.31454,-0.18783 -0.45615,-0.31305c-0.14162,-0.12522 -0.2646,-0.26684 -0.36895,-0.42485c-0.06261,-0.0805 -0.09391,-0.1759 -0.09391,-0.28621c0,-0.06559 0.01193,-0.12745 0.03578,-0.18559c0.02385,-0.05814 0.05739,-0.10882 0.10062,-0.15205c0.04323,-0.04323 0.09317,-0.07677 0.14982,-0.10062c0.05665,-0.02385 0.11926,-0.03578 0.18783,-0.03578c0.1759,0 0.30857,0.07304 0.39802,0.21913c0.12522,0.19379 0.28174,0.33988 0.46957,0.43827c0.18783,0.09839 0.39056,0.14758 0.60821,0.14758c0.16994,0 0.33019,-0.03354 0.48075,-0.10062c0.15056,-0.06708 0.28174,-0.15727 0.39354,-0.27056c0.1118,-0.11329 0.2005,-0.24671 0.26609,-0.40025c0.06559,-0.15354 0.09839,-0.31677 0.09839,-0.48969c0,-0.16398 -0.03056,-0.31826 -0.09168,-0.46286c-0.06112,-0.1446 -0.17888,-0.28771 -0.3533,-0.42932c-0.17441,-0.14162 -0.45094,-0.26907 -0.82957,-0.38236z" data-paper-data="{&quot;glyphName&quot;:&quot;S&quot;,&quot;glyphIndex&quot;:10,&quot;word&quot;:1}" id="element-id-91672"></path><path d="M419.44613,264.78791h-1.76648v5.73323c0,0.13118 -0.04621,0.24298 -0.13864,0.33541c-0.09242,0.09242 -0.20423,0.13864 -0.33541,0.13864c-0.13118,0 -0.24298,-0.04621 -0.33541,-0.13864c-0.09242,-0.09242 -0.13864,-0.20423 -0.13864,-0.33541v-5.73323h-1.76648c-0.13118,0 -0.24298,-0.04621 -0.33541,-0.13864c-0.09242,-0.09242 -0.13864,-0.20423 -0.13864,-0.33541c0,-0.13118 0.04621,-0.24298 0.13864,-0.33541c0.09242,-0.09242 0.20423,-0.13864 0.33541,-0.13864h4.48104c0.13118,0 0.24298,0.04621 0.33541,0.13864c0.09242,0.09242 0.13864,0.20423 0.13864,0.33541c0,0.13118 -0.04621,0.24298 -0.13864,0.33541c-0.09242,0.09242 -0.20423,0.13864 -0.33541,0.13864z" data-paper-data="{&quot;glyphName&quot;:&quot;T&quot;,&quot;glyphIndex&quot;:11,&quot;lastGlyphOfWord&quot;:true,&quot;word&quot;:1}" id="element-id-92688"></path></g><g data-paper-data="{&quot;stacked&quot;:true,&quot;isPrimaryText&quot;:true}" id="element-id-99865"><path d="M275.93221,219.21795v-19.8609h7.49187c1.31864,0 2.32569,0.06322 3.02113,0.18967c0.97543,0.16257 1.79281,0.47191 2.45213,0.92802c0.65932,0.45611 1.18994,1.0951 1.59185,1.917c0.40191,0.82189 0.60287,1.72507 0.60287,2.70954c0,1.68894 -0.53739,3.11822 -1.61217,4.28784c-1.07478,1.16962 -3.01662,1.75442 -5.8255,1.75442h-5.09393v8.07442zM278.56046,208.79979h5.13457c1.69798,0 2.90372,-0.31611 3.61723,-0.94834c0.71351,-0.63223 1.07027,-1.52186 1.07027,-2.66889c0,-0.83092 -0.20999,-1.54218 -0.62997,-2.13376c-0.41998,-0.59158 -0.97317,-0.98221 -1.65959,-1.17187c-0.44256,-0.11741 -1.25993,-0.17612 -2.45213,-0.17612h-5.08038z" data-paper-data="{&quot;glyphName&quot;:&quot;P&quot;,&quot;glyphIndex&quot;:0,&quot;firstGlyphOfWord&quot;:true,&quot;word&quot;:1,&quot;line&quot;:1,&quot;firstGlyphOfFirstLine&quot;:true}" fill="#babbb1" id="element-id-97635"></path><path d="M294.47898,219.21795v-19.8609h8.80599c1.77023,0 3.11597,0.17838 4.03721,0.53513c0.92124,0.35676 1.65733,0.98672 2.20827,1.8899c0.55094,0.90318 0.82641,1.90119 0.82641,2.99404c0,1.40896 -0.45611,2.59664 -1.36832,3.56304c-0.91221,0.9664 -2.32117,1.58056 -4.22688,1.84248c0.69545,0.33418 1.22381,0.66384 1.58508,0.98898c0.7677,0.70448 1.49476,1.58508 2.18118,2.6418l3.45466,5.40552h-3.30563l-2.62825,-4.13204c-0.7677,-1.1922 -1.39993,-2.10441 -1.89668,-2.73663c-0.49675,-0.63223 -0.94156,-1.07478 -1.33445,-1.32767c-0.39288,-0.25289 -0.79254,-0.42901 -1.19897,-0.52836c-0.29805,-0.06322 -0.78577,-0.09483 -1.46315,-0.09483h-3.04823v8.81954zM297.10723,208.1224h5.64938c1.20123,0 2.14053,-0.12419 2.81792,-0.37256c0.67738,-0.24837 1.1922,-0.64577 1.54444,-1.1922c0.35224,-0.54642 0.52836,-1.14026 0.52836,-1.78152c0,-0.93931 -0.34095,-1.71152 -1.02285,-2.31665c-0.6819,-0.60513 -1.75894,-0.90769 -3.23112,-0.90769h-6.28612z" data-paper-data="{&quot;glyphName&quot;:&quot;R&quot;,&quot;glyphIndex&quot;:1,&quot;word&quot;:1,&quot;line&quot;:1}" fill="#babbb1" id="element-id-2104"></path><path d="M313.67604,209.54491c0,-3.2966 0.88512,-5.87744 2.65535,-7.7425c1.77023,-1.86506 4.05527,-2.7976 6.85513,-2.7976c1.83345,0 3.48627,0.43804 4.95845,1.31412c1.47218,0.87608 2.59438,2.09763 3.3666,3.66465c0.77222,1.56701 1.15833,3.34402 1.15833,5.33101c0,2.01409 -0.40643,3.81593 -1.21929,5.40552c-0.81286,1.58959 -1.96441,2.79308 -3.45466,3.61046c-1.49024,0.81738 -3.0979,1.22607 -4.82297,1.22607c-1.86958,0 -3.54046,-0.45159 -5.01264,-1.35477c-1.47218,-0.90318 -2.58761,-2.13602 -3.34628,-3.69852c-0.75867,-1.5625 -1.13801,-3.21532 -1.13801,-4.95845zM316.38558,209.58555c0,2.39342 0.64351,4.27881 1.93054,5.65616c1.28703,1.37735 2.90146,2.06602 4.8433,2.06602c1.97796,0 3.60594,-0.69545 4.88394,-2.08634c1.278,-1.3909 1.917,-3.36434 1.917,-5.92034c0,-1.61669 -0.27321,-3.02791 -0.81963,-4.23365c-0.54642,-1.20574 -1.34574,-2.14053 -2.39794,-2.80437c-1.0522,-0.66384 -2.23311,-0.99575 -3.54272,-0.99575c-1.86055,0 -3.46143,0.639 -4.80265,1.917c-1.34122,1.278 -2.01183,3.41176 -2.01183,6.40128z" data-paper-data="{&quot;glyphName&quot;:&quot;O&quot;,&quot;glyphIndex&quot;:2,&quot;word&quot;:1,&quot;line&quot;:1}" fill="#babbb1" id="element-id-63643"></path><path d="M336.19229,219.21795v-19.8609h13.39866v2.34375h-10.77041v6.15065h9.3208v2.34375h-9.3208v9.02275z" data-paper-data="{&quot;glyphName&quot;:&quot;F&quot;,&quot;glyphIndex&quot;:3,&quot;word&quot;:1,&quot;line&quot;:1}" fill="#babbb1" id="element-id-41189"></path><path d="M350.30897,219.21795v-2.77727h2.77727v2.77727z" data-paper-data="{&quot;glyphName&quot;:&quot;.&quot;,&quot;glyphIndex&quot;:4,&quot;lastGlyphOfWord&quot;:true,&quot;word&quot;:1,&quot;line&quot;:1}" fill="#babbb1" id="element-id-49377"></path><path d="M365.34689,219.21795v-19.8609h6.84158c1.54444,0 2.72308,0.09483 3.53594,0.2845c1.13801,0.26192 2.10892,0.73609 2.91275,1.42251c1.04769,0.88512 1.83119,2.01635 2.35052,3.39369c0.51933,1.37735 0.77899,2.95114 0.77899,4.72137c0,1.50831 -0.17612,2.84501 -0.52836,4.01011c-0.35224,1.1651 -0.80383,2.12924 -1.35477,2.89243c-0.55094,0.76319 -1.15381,1.3638 -1.80862,1.80184c-0.6548,0.43804 -1.44509,0.76996 -2.37084,0.99575c-0.92576,0.22579 -1.98925,0.33869 -3.19048,0.33869zM367.97514,216.8742h4.24042c1.30961,0 2.33697,-0.12193 3.0821,-0.36579c0.74512,-0.24386 1.33896,-0.58707 1.78152,-1.02962c0.62319,-0.62319 1.10865,-1.46089 1.45638,-2.51309c0.34772,-1.0522 0.52159,-2.32794 0.52159,-3.82722c0,-2.07731 -0.34095,-3.67368 -1.02285,-4.7891c-0.6819,-1.11543 -1.51057,-1.86281 -2.486,-2.24214c-0.70448,-0.27095 -1.83797,-0.40643 -3.40047,-0.40643h-4.17269z" data-paper-data="{&quot;glyphName&quot;:&quot;D&quot;,&quot;glyphIndex&quot;:5,&quot;firstGlyphOfWord&quot;:true,&quot;word&quot;:2,&quot;line&quot;:1}" fill="#babbb1" id="element-id-5308"></path><path d="M385.42455,219.21795v-19.8609h8.80599c1.77023,0 3.11597,0.17838 4.03721,0.53513c0.92124,0.35676 1.65733,0.98672 2.20827,1.8899c0.55094,0.90318 0.82641,1.90119 0.82641,2.99404c0,1.40896 -0.45611,2.59664 -1.36832,3.56304c-0.91221,0.9664 -2.32117,1.58056 -4.22688,1.84248c0.69545,0.33418 1.22381,0.66384 1.58508,0.98898c0.7677,0.70448 1.49476,1.58508 2.18118,2.6418l3.45466,5.40552h-3.30563l-2.62825,-4.13204c-0.7677,-1.1922 -1.39993,-2.10441 -1.89668,-2.73663c-0.49675,-0.63223 -0.94156,-1.07478 -1.33445,-1.32767c-0.39288,-0.25289 -0.79254,-0.42901 -1.19897,-0.52836c-0.29805,-0.06322 -0.78577,-0.09483 -1.46315,-0.09483h-3.04823v8.81954zM388.0528,208.1224h5.64938c1.20123,0 2.14053,-0.12419 2.81792,-0.37256c0.67738,-0.24837 1.1922,-0.64577 1.54444,-1.1922c0.35224,-0.54642 0.52836,-1.14026 0.52836,-1.78152c0,-0.93931 -0.34095,-1.71152 -1.02285,-2.31665c-0.6819,-0.60513 -1.75894,-0.90769 -3.23112,-0.90769h-6.28612z" data-paper-data="{&quot;glyphName&quot;:&quot;R&quot;,&quot;glyphIndex&quot;:6,&quot;word&quot;:2,&quot;line&quot;:1}" fill="#babbb1" id="element-id-64170"></path><path d="M405.80026,219.21795v-2.77727h2.77727v2.77727z" data-paper-data="{&quot;glyphName&quot;:&quot;.&quot;,&quot;glyphIndex&quot;:7,&quot;lastGlyphOfWord&quot;:true,&quot;word&quot;:2,&quot;line&quot;:1,&quot;lastGlyphOfFirstLine&quot;:true}" fill="#babbb1" id="element-id-83641"></path><path d="M282.47574,248.75364v-17.51715h-6.54353v-2.34375h15.7424v2.34375h-6.57062v17.51715z" data-paper-data="{&quot;glyphName&quot;:&quot;T&quot;,&quot;glyphIndex&quot;:8,&quot;firstGlyphOfWord&quot;:true,&quot;word&quot;:2,&quot;line&quot;:2,&quot;firstGlyphOfSecondLine&quot;:true}" fill="#ffffff" id="element-id-54798"></path><path d="M290.13017,248.75364l7.62734,-19.8609h2.83147l8.12861,19.8609h-2.99404l-2.31665,-6.01517h-8.30473l-2.18118,6.01517zM295.86084,240.59794h6.7332l-2.0728,-5.50036c-0.63223,-1.67088 -1.10188,-3.04371 -1.40896,-4.11849c-0.25289,1.27348 -0.60965,2.53793 -1.07027,3.79335z" data-paper-data="{&quot;glyphName&quot;:&quot;A&quot;,&quot;glyphIndex&quot;:9,&quot;word&quot;:2,&quot;line&quot;:2}" fill="#ffffff" id="element-id-6670"></path><path d="M310.79039,248.75364v-19.8609h2.69599l10.43171,15.59338v-15.59338h2.51987v19.8609h-2.69599l-10.43171,-15.60693v15.60693z" data-paper-data="{&quot;glyphName&quot;:&quot;N&quot;,&quot;glyphIndex&quot;:10,&quot;word&quot;:2,&quot;line&quot;:2}" fill="#ffffff" id="element-id-8260"></path><path d="M345.02537,241.79013l2.62825,0.66384c-0.55094,2.1586 -1.54218,3.80464 -2.97372,4.93813c-1.43154,1.13349 -3.18145,1.70023 -5.24973,1.70023c-2.14053,0 -3.88141,-0.43578 -5.22263,-1.30735c-1.34122,-0.87157 -2.36181,-2.13376 -3.06178,-3.78658c-0.69996,-1.65282 -1.04995,-3.42756 -1.04995,-5.32424c0,-2.06828 0.39514,-3.87238 1.18542,-5.4123c0.79028,-1.53992 1.91474,-2.70954 3.37337,-3.50885c1.45863,-0.79931 3.06403,-1.19897 4.8162,-1.19897c1.98699,0 3.65787,0.50578 5.01264,1.51734c1.35477,1.01156 2.29859,2.43407 2.83147,4.26752l-2.58761,0.60965c-0.46062,-1.44509 -1.12897,-2.49729 -2.00506,-3.15661c-0.87608,-0.65932 -1.97796,-0.98898 -3.30563,-0.98898c-1.52637,0 -2.80211,0.36579 -3.82722,1.09736c-1.02511,0.73157 -1.74539,1.71378 -2.16085,2.94662c-0.41546,1.23284 -0.62319,2.50406 -0.62319,3.81367c0,1.68894 0.24612,3.16338 0.73835,4.42332c0.49223,1.25993 1.25768,2.2015 2.29633,2.82469c1.03866,0.62319 2.16311,0.93479 3.37337,0.93479c1.47218,0 2.71857,-0.42449 3.73916,-1.27348c1.02059,-0.84899 1.71152,-2.10892 2.0728,-3.7798z" data-paper-data="{&quot;glyphName&quot;:&quot;C&quot;,&quot;glyphIndex&quot;:11,&quot;word&quot;:2,&quot;line&quot;:2}" fill="#ffffff" id="element-id-1877"></path><path d="M348.71034,248.75364l7.62734,-19.8609h2.83147l8.12861,19.8609h-2.99404l-2.31665,-6.01517h-8.30473l-2.18118,6.01517zM354.44101,240.59794h6.7332l-2.0728,-5.50036c-0.63223,-1.67088 -1.10188,-3.04371 -1.40896,-4.11849c-0.25289,1.27348 -0.60965,2.53793 -1.07027,3.79335z" data-paper-data="{&quot;glyphName&quot;:&quot;A&quot;,&quot;glyphIndex&quot;:12,&quot;word&quot;:2,&quot;line&quot;:2}" fill="#ffffff" id="element-id-80697"></path><path d="M369.37055,248.75364v-19.8609h2.69599l10.43171,15.59338v-15.59338h2.51987v19.8609h-2.69599l-10.43171,-15.60693v15.60693z" data-paper-data="{&quot;glyphName&quot;:&quot;N&quot;,&quot;glyphIndex&quot;:13,&quot;lastGlyphOfWord&quot;:true,&quot;word&quot;:2,&quot;line&quot;:2}" fill="#ffffff" id="element-id-85449"></path><path d="M410.17616,228.89274h2.62825v11.47488c0,1.99602 -0.22579,3.5811 -0.67738,4.75524c-0.45159,1.17413 -1.26671,2.12924 -2.44536,2.86533c-1.17865,0.73609 -2.72534,1.10414 -4.64008,1.10414c-1.86055,0 -3.3824,-0.32063 -4.56557,-0.96189c-1.18316,-0.64126 -2.02764,-1.56927 -2.53342,-2.78405c-0.50578,-1.21478 -0.75867,-2.87437 -0.75867,-4.97877v-11.47488h2.62825v11.46134c0,1.72507 0.16031,2.9963 0.48094,3.81367c0.32063,0.81738 0.87157,1.44734 1.65282,1.8899c0.78125,0.44256 1.73636,0.66384 2.86533,0.66384c1.9328,0 3.31015,-0.43804 4.13204,-1.31412c0.82189,-0.87608 1.23284,-2.56051 1.23284,-5.05328z" data-paper-data="{&quot;glyphName&quot;:&quot;U&quot;,&quot;glyphIndex&quot;:14,&quot;firstGlyphOfWord&quot;:true,&quot;word&quot;:2,&quot;line&quot;:2}" fill="#ffffff" id="element-id-36987"></path><path d="M422.77551,248.75364v-8.41311l-7.65444,-11.44779h3.19725l3.91528,5.98807c0.72254,1.11994 1.39541,2.23988 2.0186,3.35982c0.5961,-1.03866 1.31864,-2.20827 2.16763,-3.50885l3.84754,-5.83905h3.06178l-7.92539,11.44779v8.41311z" data-paper-data="{&quot;glyphName&quot;:&quot;Y&quot;,&quot;glyphIndex&quot;:15,&quot;word&quot;:2,&quot;line&quot;:2}" fill="#ffffff" id="element-id-14224"></path><path d="M434.7923,242.37268l2.47923,-0.21676c0.11741,0.9935 0.39062,1.80862 0.81963,2.44536c0.42901,0.63674 1.0951,1.15155 1.99828,1.54444c0.90318,0.39288 1.91925,0.58932 3.04823,0.58932c1.00253,0 1.88764,-0.14902 2.65535,-0.44707c0.7677,-0.29805 1.33896,-0.70674 1.71378,-1.22607c0.37482,-0.51933 0.56223,-1.08607 0.56223,-1.70023c0,-0.62319 -0.18064,-1.16736 -0.54191,-1.6325c-0.36127,-0.46514 -0.95737,-0.85576 -1.78829,-1.17187c-0.53288,-0.20773 -1.71152,-0.53062 -3.53594,-0.96866c-1.82442,-0.43804 -3.10242,-0.85125 -3.83399,-1.23961c-0.94834,-0.49675 -1.65507,-1.11317 -2.12021,-1.84926c-0.46514,-0.73609 -0.69771,-1.56024 -0.69771,-2.47245c0,-1.00253 0.2845,-1.93958 0.8535,-2.81114c0.569,-0.87157 1.39993,-1.53315 2.49277,-1.98474c1.09285,-0.45159 2.30762,-0.67738 3.64433,-0.67738c1.47218,0 2.7705,0.23708 3.89496,0.71125c1.12446,0.47417 1.98925,1.17187 2.59438,2.09312c0.60513,0.92124 0.93027,1.96441 0.97543,3.12951l-2.51987,0.18967c-0.13548,-1.25542 -0.59384,-2.20376 -1.37509,-2.84501c-0.78125,-0.64126 -1.93506,-0.96189 -3.46143,-0.96189c-1.58959,0 -2.74792,0.29128 -3.47498,0.87383c-0.72706,0.58255 -1.09059,1.28477 -1.09059,2.10666c0,0.71351 0.25741,1.30058 0.77222,1.7612c0.50578,0.46062 1.82668,0.93253 3.9627,1.41573c2.13602,0.4832 3.60142,0.90544 4.39622,1.26671c1.15607,0.53288 2.00957,1.208 2.56051,2.02538c0.55094,0.81738 0.82641,1.75894 0.82641,2.82469c0,1.05672 -0.30256,2.05247 -0.90769,2.98726c-0.60513,0.93479 -1.47444,1.66185 -2.60793,2.18118c-1.13349,0.51933 -2.40923,0.77899 -3.82722,0.77899c-1.79733,0 -3.30338,-0.26192 -4.51815,-0.78577c-1.21478,-0.52384 -2.16763,-1.31187 -2.85856,-2.36407c-0.69093,-1.0522 -1.05446,-2.24214 -1.09059,-3.56981z" data-paper-data="{&quot;glyphName&quot;:&quot;S&quot;,&quot;glyphIndex&quot;:16,&quot;word&quot;:2,&quot;line&quot;:2}" fill="#ffffff" id="element-id-4818"></path><path d="M452.0114,248.75364l7.62734,-19.8609h2.83147l8.12861,19.8609h-2.99404l-2.31665,-6.01517h-8.30473l-2.18118,6.01517zM457.74207,240.59794h6.7332l-2.0728,-5.50036c-0.63223,-1.67088 -1.10188,-3.04371 -1.40896,-4.11849c-0.25289,1.27348 -0.60965,2.53793 -1.07027,3.79335z" data-paper-data="{&quot;glyphName&quot;:&quot;A&quot;,&quot;glyphIndex&quot;:17,&quot;word&quot;:2,&quot;line&quot;:2}" fill="#ffffff" id="element-id-71273"></path><path d="M472.59033,248.75364v-19.8609h2.62825v17.51715h9.78142v2.34375z" data-paper-data="{&quot;glyphName&quot;:&quot;L&quot;,&quot;glyphIndex&quot;:18,&quot;lastGlyphOfWord&quot;:true,&quot;word&quot;:2,&quot;line&quot;:2,&quot;lastGlyphOfSecondLine&quot;:true}" fill="#ffffff" id="element-id-98052"></path></g><g data-paper-data="{&quot;isIcon&quot;:&quot;true&quot;,&quot;selectedEffects&quot;:{&quot;container&quot;:&quot;&quot;,&quot;transformation&quot;:&quot;&quot;,&quot;pattern&quot;:&quot;&quot;},&quot;fillRule&quot;:&quot;nonzero&quot;,&quot;fillRuleOriginal&quot;:&quot;nonzero&quot;,&quot;iconType&quot;:&quot;initial&quot;,&quot;rawInitialId&quot;:&quot;304&quot;,&quot;initialText&quot;:&quot;TU&quot;,&quot;iconStyle&quot;:&quot;standalone&quot;,&quot;bounds&quot;:{&quot;x&quot;:65.00000000000003,&quot;y&quot;:199.0048151900479,&quot;width&quot;:162.57590415580967,&quot;height&quot;:71.99036961990419},&quot;suitableAsStandaloneIcon&quot;:true}" fill="#babbb1" id="element-id-89366"><path d="M118.64126,256.61821c0,3.19879 -1.12485,5.90546 -3.4097,8.0497c-2.21455,2.14424 -4.95637,3.19879 -8.19031,3.19879c-3.23394,0 -5.97576,-1.0897 -8.22546,-3.23394c-2.28485,-2.17939 -3.44485,-4.85091 -3.44485,-8.0497v-29.87881c0,-9.77213 -1.82788,-16.66183 -5.48364,-20.66911c-2.2497,-2.49576 -5.13213,-3.76121 -8.61213,-3.86667c25.97699,0.66788 43.34185,0.70303 52.09459,0.03515c-3.4097,0.24606 -6.32728,1.61697 -8.75273,4.07758c-3.97212,4.04243 -5.97576,10.58062 -5.97576,19.61456zM79.41213,199.11028c-4.00728,0.0703 -7.41698,1.54667 -10.19395,4.42909c-2.81212,2.88243 -4.21819,6.32728 -4.21819,10.33455c0,4.11273 1.44121,7.59273 4.32364,10.51031c2.84727,2.84727 6.25698,4.28849 10.2291,4.28849h12.72486v27.91033c0,4.04243 1.44121,7.45213 4.28849,10.2291c2.84727,2.77697 6.32728,4.18304 10.47516,4.18304c4.04243,0 7.48728,-1.33576 10.2994,-4.00728c2.91758,-2.77697 4.39394,-6.36243 4.39394,-10.68607v-27.69941c8.43637,0 12.61941,0 12.58425,0c4.04243,0 7.52243,-1.44121 10.36971,-4.35879c2.88243,-2.88243 4.32364,-6.36243 4.32364,-10.44001c0,-4.07758 -1.44121,-7.55758 -4.32364,-10.47516c-2.84727,-2.88243 -6.32728,-4.32364 -10.36971,-4.32364c-36.4873,0 -54.80126,0.03515 -54.90671,0.10545zM158.99523,213.10059c0,-3.05819 1.0897,-5.69455 3.23395,-7.87395c2.17939,-2.14424 4.78061,-3.23394 7.8388,-3.23394c3.05819,0 5.6594,1.05454 7.87395,3.16364c2.17939,2.14424 3.26909,4.64001 3.26909,7.55758v38.87761c0,5.16728 1.30061,9.28001 3.93697,12.37334c2.00364,2.35515 4.21819,3.72607 6.64364,4.04243c-9.03394,0 -16.76729,-3.23394 -23.20002,-9.66667c-6.39758,-6.43273 -9.59637,-14.23638 -9.59637,-23.34063zM203.53224,203.25816c-2.70667,2.77697 -4.07758,6.08122 -4.07758,9.84243v21.89941c0,2.14424 -0.73818,3.93697 -2.2497,5.44849c-1.51152,1.51152 -3.30424,2.2497 -5.41334,2.2497c-2.10909,0 -3.90182,-0.73818 -5.37818,-2.2497c-1.51152,-1.51152 -2.2497,-3.30424 -2.2497,-5.44849v-21.89941c0,-3.76121 -1.37091,-7.03031 -4.07758,-9.80728c-2.77697,-2.84727 -6.11637,-4.28849 -10.01819,-4.28849c-3.86667,0 -7.17091,1.37091 -9.91274,4.14788c-2.74182,2.74182 -4.11273,6.04607 -4.11273,9.94789v21.89941c0,9.91274 3.48,18.38426 10.47516,25.44972c6.99516,7.03031 15.43153,10.54547 25.27396,10.54547c9.87758,0 18.2788,-3.51515 25.27396,-10.54546c6.99516,-7.06546 10.51031,-15.53698 10.51031,-25.44972v-21.89941c0,-3.90182 -1.37091,-7.20607 -4.11273,-9.94789c-2.74182,-2.77697 -6.04606,-4.14788 -9.91274,-4.14788c-3.90182,0 -7.24122,1.40606 -10.01819,4.25333z" data-paper-data="{&quot;isPathIcon&quot;:true}" id="element-id-56743"></path></g><path d="M246.91842,270.99518v-71.99037h1.05937v71.99037z" data-paper-data="{&quot;isShapeTextSeparator&quot;:true}" fill="#babbb1" id="element-id-8403"></path></g></g><g class="watermark-group" style="opacity:0.040000010281801224"><path class="watermark-path" d="M129.52,370.3a11.88,11.88,0,0,1,2.58,5.58,12,12,0,0,1,.11,3,11.81,11.81,0,0,1-.64,2.93,12.34,12.34,0,0,1-1.41,2.72,11.65,11.65,0,0,1-2.13,2.32,12,12,0,0,1-2.64,1.69,13,13,0,0,1-2.91.9,12.47,12.47,0,0,1-3,.12,12.17,12.17,0,0,1-2.93-.64,11.8,11.8,0,0,1-2.72-1.38,12.19,12.19,0,0,1-4-4.79,11.85,11.85,0,0,1-.89-2.92,12.14,12.14,0,0,1-.13-3,11.54,11.54,0,0,1,.64-2.92,11.67,11.67,0,0,1,3.5-5,11.44,11.44,0,0,1,2.67-1.69,11.64,11.64,0,0,1,2.92-.91,10.71,10.71,0,0,1,3-.12,11.68,11.68,0,0,1,5.66,2,11.7,11.7,0,0,1,2.34,2.12m-1.4,8.76a13,13,0,0,1-1.22,2.32,9.68,9.68,0,0,1-1.81,2,7.44,7.44,0,0,1-2.38,1.37,6.17,6.17,0,0,1-5.11-.46,8.73,8.73,0,0,1-3.85-4.58,6.69,6.69,0,0,1-.34-2.66,6.09,6.09,0,0,1,.77-2.47,7.15,7.15,0,0,1,1.75-2.11,9.58,9.58,0,0,1,1.09-.81,8.23,8.23,0,0,1,1.12-.63,8.14,8.14,0,0,1,1.19-.46,12.71,12.71,0,0,1,1.32-.37l2,2.38a12.83,12.83,0,0,0-1.56.17,7.86,7.86,0,0,0-1.23.32,4.5,4.5,0,0,0-1,.49,6.41,6.41,0,0,0-.93.67,4.49,4.49,0,0,0-1.15,1.39,3.87,3.87,0,0,0-.45,1.58,4.12,4.12,0,0,0,.26,1.63,6.11,6.11,0,0,0,2.36,2.82,4.43,4.43,0,0,0,1.57.53,3.91,3.91,0,0,0,1.62-.17,4.71,4.71,0,0,0,1.57-.89,10.5,10.5,0,0,0,.83-.79,5.71,5.71,0,0,0,.65-.93,10.13,10.13,0,0,0,.54-1.14,12.24,12.24,0,0,0,.44-1.49l2,2.33m-14.46,4.55a8.86,8.86,0,0,0,2.78,2.22,9,9,0,0,0,3.29.94,9.15,9.15,0,0,0,3.39-.37,8.68,8.68,0,0,0,3.11-1.69,8.8,8.8,0,0,0,2.22-2.78,9.15,9.15,0,0,0,1-3.29,8.95,8.95,0,0,0-4.83-8.76,9,9,0,0,0-6.73-.57,9,9,0,0,0-5.33,4.47,8.94,8.94,0,0,0-.57,6.71,8.76,8.76,0,0,0,1.7,3.12"></path><path class="watermark-path" d="M147,349c-.48.12-1.09.31-1.82.57a24.37,24.37,0,0,0-2.4,1A28.35,28.35,0,0,0,140,352a20.72,20.72,0,0,0-2.71,1.94c-.7.59-1.28,1.11-1.74,1.57a15.07,15.07,0,0,0-1.1,1.22,4.09,4.09,0,0,0-.59.92,2.32,2.32,0,0,0-.22.64,1.16,1.16,0,0,0,0,.47,1.83,1.83,0,0,0,.18.29,1.15,1.15,0,0,0,1,.37,5.54,5.54,0,0,0,1.51-.38q.87-.35,1.95-.9l2.26-1.18q1.2-.65,2.49-1.29c.87-.44,1.73-.83,2.59-1.17a18.94,18.94,0,0,1,2.6-.81,9.27,9.27,0,0,1,2.46-.29,6.25,6.25,0,0,1,2.24.49,5.12,5.12,0,0,1,1.89,1.47,6.35,6.35,0,0,1,1.41,2.61,6,6,0,0,1,.09,2.6,8.3,8.3,0,0,1-.9,2.52,17.79,17.79,0,0,1-1.62,2.37,23.92,23.92,0,0,1-2,2.15c-.72.67-1.41,1.29-2.09,1.87a33.79,33.79,0,0,1-5.33,3.7,32.29,32.29,0,0,1-4.91,2.28l-3.61-4.3a21.38,21.38,0,0,0,5.39-1.87,27.2,27.2,0,0,0,5.4-3.56,21.59,21.59,0,0,0,2.38-2.27,8.67,8.67,0,0,0,1.18-1.7,2.32,2.32,0,0,0,.27-1.19,1.34,1.34,0,0,0-.28-.74,1.21,1.21,0,0,0-1-.42,4.32,4.32,0,0,0-1.55.34,15.77,15.77,0,0,0-2,.88c-.72.37-1.48.77-2.27,1.21l-2.45,1.3c-.85.45-1.7.85-2.56,1.21a22.37,22.37,0,0,1-2.54.86,10,10,0,0,1-2.43.32,5.76,5.76,0,0,1-2.2-.45,5,5,0,0,1-1.89-1.45,6.12,6.12,0,0,1-1.31-2.41,6,6,0,0,1-.1-2.41,8.28,8.28,0,0,1,.81-2.38,14.06,14.06,0,0,1,1.49-2.24,22.37,22.37,0,0,1,1.85-2.05q1-1,2-1.77c.7-.59,1.44-1.15,2.23-1.7s1.62-1.06,2.44-1.53,1.63-.91,2.43-1.3,1.58-.75,2.3-1L147,349"></path><path class="watermark-path" d="M186.76,337.57l-10.6-12.63,3.92,18.24-4.66,3.91-17.27-7,10.6,12.63-4.86,4.07-15.09-18,6.59-5.54,18.69,7.52-4.15-19.71,6.57-5.52,15.09,18-4.83,4.05"></path><path class="watermark-path" d="M208.84,313.24l-10,8.42,1.16,4.82L194.56,331l-5.68-25.89,5.42-4.55,24.51,10.09-5.42,4.55-4.55-2m-11.23,3.45,6.57-5.52-8.83-3.87,2.26,9.39"></path><path class="watermark-path" d="M227.49,281.38c-.48.12-1.09.31-1.82.57a24.37,24.37,0,0,0-2.4,1,26.11,26.11,0,0,0-2.7,1.47,20.72,20.72,0,0,0-2.71,1.94c-.7.59-1.28,1.11-1.74,1.57a13.39,13.39,0,0,0-1.1,1.22,4.29,4.29,0,0,0-.59.91,2.48,2.48,0,0,0-.22.65,1.16,1.16,0,0,0,0,.47,1.83,1.83,0,0,0,.18.29,1.15,1.15,0,0,0,1,.37,5.54,5.54,0,0,0,1.51-.38q.87-.34,2-.9l2.26-1.18q1.2-.64,2.49-1.29c.87-.44,1.73-.83,2.59-1.17a18.94,18.94,0,0,1,2.6-.81,9.27,9.27,0,0,1,2.46-.29,6.08,6.08,0,0,1,2.24.49,5.09,5.09,0,0,1,1.89,1.46,6.47,6.47,0,0,1,1.41,2.61,6.07,6.07,0,0,1,.09,2.61,8.3,8.3,0,0,1-.9,2.52,16.32,16.32,0,0,1-1.63,2.36,21.41,21.41,0,0,1-2,2.16c-.72.67-1.41,1.29-2.1,1.86a33.36,33.36,0,0,1-5.32,3.71,31.92,31.92,0,0,1-4.92,2.28l-3.6-4.3a21.38,21.38,0,0,0,5.39-1.87,27.2,27.2,0,0,0,5.4-3.56,21.59,21.59,0,0,0,2.38-2.27,8.67,8.67,0,0,0,1.18-1.7A2.32,2.32,0,0,0,231,293a1.34,1.34,0,0,0-.28-.74,1.21,1.21,0,0,0-1-.42,4.32,4.32,0,0,0-1.55.34,16.54,16.54,0,0,0-2,.88c-.71.37-1.47.77-2.26,1.21l-2.46,1.3c-.84.44-1.7.85-2.55,1.21a24.53,24.53,0,0,1-2.54.86A10,10,0,0,1,214,298a5.76,5.76,0,0,1-2.2-.45,5,5,0,0,1-1.89-1.45,6.12,6.12,0,0,1-1.31-2.41,5.78,5.78,0,0,1-.1-2.41,8,8,0,0,1,.81-2.38,14.61,14.61,0,0,1,1.49-2.25,22.26,22.26,0,0,1,1.85-2q1-1,2-1.77c.7-.59,1.44-1.15,2.23-1.7s1.62-1.06,2.44-1.53,1.63-.91,2.43-1.31,1.58-.74,2.3-1l3.5,4.16"></path><path class="watermark-path" d="M261.64,274.74l-6.29-7.5L243,277.61l6.3,7.5-4.86,4.07-15.09-18,4.85-4.08,5.49,6.55L252,263.3l-5.49-6.55,4.86-4.07,15.09,18-4.86,4.08"></path><path class="watermark-path" d="M272.18,265.9l-15.09-18,4.86-4.08,15.09,18-4.86,4.08"></path><path class="watermark-path" d="M299.65,242.85l-22.51-2.18L287.51,253l-4.85,4.08-15.1-18,5.28-4.43,22.56,2.22L285,224.5l4.83-4.06,15.09,18-5.26,4.42"></path><path class="watermark-path" d="M306.68,205.52a31.88,31.88,0,0,1,5.29-3.66,34.48,34.48,0,0,1,5.14-2.35l3.69,4.39a20.77,20.77,0,0,0-2.37.61,20.47,20.47,0,0,0-2.61,1,25.12,25.12,0,0,0-2.76,1.49,23.9,23.9,0,0,0-2.8,2,20.42,20.42,0,0,0-2.8,2.77,12.77,12.77,0,0,0-1.64,2.52,7,7,0,0,0-.68,2.24,6,6,0,0,0,.66,3.64,8.16,8.16,0,0,0,.94,1.38,9.12,9.12,0,0,0,1.08,1.07,6.39,6.39,0,0,0,1.47.91,6.73,6.73,0,0,0,1.88.48,6.54,6.54,0,0,0,2.28-.18,11.67,11.67,0,0,0,2.74-1.07,19.38,19.38,0,0,0,3.18-2.22c.57-.48,1.06-.92,1.46-1.31a14.57,14.57,0,0,0,1-1.13,11.46,11.46,0,0,0,.81-1.05l.74-1.09-1.82-2.17-5.45,4.57-3.31-3.94,10.31-8.65,7.71,9.19a29,29,0,0,1-1.67,2.43q-1,1.26-2.1,2.52c-.74.84-1.5,1.65-2.3,2.44s-1.58,1.5-2.33,2.14a31,31,0,0,1-3.59,2.61,22.55,22.55,0,0,1-3.64,1.83,15.64,15.64,0,0,1-3.63.89,10.72,10.72,0,0,1-3.49-.15,10.45,10.45,0,0,1-3.28-1.33,12.54,12.54,0,0,1-3-2.67,12,12,0,0,1-2.08-3.44,10.45,10.45,0,0,1-.71-3.5,11.14,11.14,0,0,1,.51-3.51,15.72,15.72,0,0,1,1.56-3.43,21.62,21.62,0,0,1,2.42-3.28,30.3,30.3,0,0,1,3.15-3"></path><path class="watermark-path" d="M336.91,211.59l-15.1-18,4.86-4.08,11.79,14,13.13-11,3.31,3.94-18,15.1"></path><path class="watermark-path" d="M374.54,164.71a12.28,12.28,0,0,1,2.59,4.81,10.44,10.44,0,0,1,0,5,14.62,14.62,0,0,1-2.33,5,25.55,25.55,0,0,1-4.56,4.85,26.07,26.07,0,0,1-5.6,3.67,14.79,14.79,0,0,1-5.38,1.43,10.43,10.43,0,0,1-4.94-.89,13.24,13.24,0,0,1-6.87-8.18,10.48,10.48,0,0,1,0-5,14.51,14.51,0,0,1,2.36-5,25.23,25.23,0,0,1,4.57-4.89,25,25,0,0,1,5.59-3.64,14.45,14.45,0,0,1,5.35-1.43,10.31,10.31,0,0,1,4.93.92,12.22,12.22,0,0,1,4.28,3.38m-4.91,4.11a8.36,8.36,0,0,0-2-1.72,5.5,5.5,0,0,0-2.65-.85,7.72,7.72,0,0,0-3.32.57,14.49,14.49,0,0,0-4,2.52,16.72,16.72,0,0,0-2.38,2.4,10.15,10.15,0,0,0-1.39,2.24,6.71,6.71,0,0,0-.56,2.1,5.69,5.69,0,0,0,.1,1.9,6.21,6.21,0,0,0,.61,1.69,9.85,9.85,0,0,0,1,1.44,10.48,10.48,0,0,0,1.26,1.23,6.67,6.67,0,0,0,1.57.92,6.1,6.1,0,0,0,1.85.41,6.8,6.8,0,0,0,2.15-.2,11.06,11.06,0,0,0,2.45-1,17.67,17.67,0,0,0,2.77-1.94,14.39,14.39,0,0,0,3.18-3.52,7.74,7.74,0,0,0,1.14-3.17,5.54,5.54,0,0,0-.37-2.74,8.52,8.52,0,0,0-1.36-2.3"></path><path class="watermark-path" d="M382.66,141.76A32.3,32.3,0,0,1,388,138.1a34.12,34.12,0,0,1,5.15-2.35l3.69,4.4a19.62,19.62,0,0,0-2.37.6,22.08,22.08,0,0,0-2.61,1,26,26,0,0,0-2.77,1.49,23.9,23.9,0,0,0-2.8,2,21,21,0,0,0-2.8,2.78,13.19,13.19,0,0,0-1.64,2.51,7.29,7.29,0,0,0-.68,2.24,6.36,6.36,0,0,0,.06,2,5.8,5.8,0,0,0,.61,1.68,8.12,8.12,0,0,0,.93,1.38,9.16,9.16,0,0,0,1.08,1.08,6.56,6.56,0,0,0,1.48.9,6,6,0,0,0,1.87.48,6.76,6.76,0,0,0,2.28-.17,12,12,0,0,0,2.74-1.08,18.57,18.57,0,0,0,3.18-2.22c.58-.48,1.06-.92,1.46-1.31s.75-.77,1.05-1.12.57-.72.81-1.06l.73-1.09-1.82-2.17-5.45,4.57-3.3-3.94,10.3-8.65,7.71,9.19a29,29,0,0,1-1.67,2.43q-1,1.26-2.1,2.52c-.73.84-1.5,1.66-2.3,2.44s-1.57,1.5-2.33,2.14a31,31,0,0,1-3.59,2.61,22.15,22.15,0,0,1-3.64,1.83,15.56,15.56,0,0,1-3.62.89,11,11,0,0,1-3.49-.14,10.84,10.84,0,0,1-3.28-1.33,12.82,12.82,0,0,1-3-2.68,12.12,12.12,0,0,1-2.08-3.43A10.71,10.71,0,0,1,375,155a11.18,11.18,0,0,1,.51-3.51,15.51,15.51,0,0,1,1.57-3.43,21.44,21.44,0,0,1,2.42-3.28,30.19,30.19,0,0,1,3.14-3"></path><path class="watermark-path" d="M428.63,119.31a12.26,12.26,0,0,1,2.59,4.82,10.44,10.44,0,0,1,0,5,14.53,14.53,0,0,1-2.34,5,25.29,25.29,0,0,1-4.56,4.86,26,26,0,0,1-5.59,3.67,14.84,14.84,0,0,1-5.38,1.43,10.61,10.61,0,0,1-4.95-.89,12.15,12.15,0,0,1-4.3-3.37,12,12,0,0,1-2.56-4.81,10.48,10.48,0,0,1,0-5,14.39,14.39,0,0,1,2.35-5,27.89,27.89,0,0,1,10.16-8.53,14.49,14.49,0,0,1,5.36-1.43,10.27,10.27,0,0,1,4.92.92,12.21,12.21,0,0,1,4.28,3.37m-4.91,4.12a8.17,8.17,0,0,0-2-1.72,5.58,5.58,0,0,0-2.65-.86,7.86,7.86,0,0,0-3.31.58,14.49,14.49,0,0,0-4,2.52,16.21,16.21,0,0,0-2.38,2.4,9.85,9.85,0,0,0-1.4,2.24,7,7,0,0,0-.56,2.1,6,6,0,0,0,.1,1.9,6.23,6.23,0,0,0,.62,1.69,8.49,8.49,0,0,0,1,1.44,9.18,9.18,0,0,0,1.26,1.23,6.67,6.67,0,0,0,1.57.92,6,6,0,0,0,1.84.41,6.86,6.86,0,0,0,2.16-.2,11.26,11.26,0,0,0,2.45-1,17.62,17.62,0,0,0,2.76-1.94,14.67,14.67,0,0,0,3.19-3.52,7.71,7.71,0,0,0,1.13-3.17,5.53,5.53,0,0,0-.36-2.74,8.55,8.55,0,0,0-1.37-2.3"></path></g><rect data-element-id="element-id-89366" stroke-width="2" fill="transparent" class="invisible-element-box grouping-element" x="65" y="199" width="163" height="72" data-element-name="isIcon"></rect><rect data-element-id="element-id-56743" stroke-width="2" fill="transparent" class="invisible-element-box individual-element" x="65" y="199" width="163" height="72"></rect><rect data-element-id="element-id-99865" stroke-width="2" fill="transparent" class="invisible-element-box grouping-element" x="276" y="199" width="209" height="50" data-element-name="isPrimaryText"></rect><rect data-element-id="element-id-23736" stroke-width="2" fill="transparent" class="invisible-element-box grouping-element" x="276" y="264" width="144" height="7" data-element-name="isSecondaryText"></rect><rect data-element-id="element-id-63643" stroke-width="2" fill="transparent" class="invisible-element-box individual-element" x="314" y="199" width="19" height="21"></rect><rect data-element-id="element-id-6670" stroke-width="2" fill="transparent" class="invisible-element-box individual-element" x="290" y="229" width="19" height="20"></rect><rect data-element-id="element-id-80697" stroke-width="2" fill="transparent" class="invisible-element-box individual-element" x="349" y="229" width="19" height="20"></rect><rect data-element-id="element-id-71273" stroke-width="2" fill="transparent" class="invisible-element-box individual-element" x="452" y="229" width="19" height="20"></rect><rect data-element-id="element-id-1877" stroke-width="2" fill="transparent" class="invisible-element-box individual-element" x="330" y="229" width="18" height="21"></rect><rect data-element-id="element-id-2104" stroke-width="2" fill="transparent" class="invisible-element-box individual-element" x="294" y="199" width="18" height="20"></rect><rect data-element-id="element-id-64170" stroke-width="2" fill="transparent" class="invisible-element-box individual-element" x="385" y="199" width="18" height="20"></rect><rect data-element-id="element-id-14224" stroke-width="2" fill="transparent" class="invisible-element-box individual-element" x="415" y="229" width="18" height="20"></rect><rect data-element-id="element-id-4818" stroke-width="2" fill="transparent" class="invisible-element-box individual-element" x="435" y="229" width="16" height="21"></rect><rect data-element-id="element-id-5308" stroke-width="2" fill="transparent" class="invisible-element-box individual-element" x="365" y="199" width="16" height="20"></rect><rect data-element-id="element-id-54798" stroke-width="2" fill="transparent" class="invisible-element-box individual-element" x="276" y="229" width="16" height="20"></rect><rect data-element-id="element-id-8260" stroke-width="2" fill="transparent" class="invisible-element-box individual-element" x="311" y="229" width="16" height="20"></rect><rect data-element-id="element-id-85449" stroke-width="2" fill="transparent" class="invisible-element-box individual-element" x="369" y="229" width="16" height="20"></rect><rect data-element-id="element-id-36987" stroke-width="2" fill="transparent" class="invisible-element-box individual-element" x="397" y="229" width="16" height="20"></rect><rect data-element-id="element-id-97635" stroke-width="2" fill="transparent" class="invisible-element-box individual-element" x="276" y="199" width="15" height="20"></rect><rect data-element-id="element-id-41189" stroke-width="2" fill="transparent" class="invisible-element-box individual-element" x="336" y="199" width="13" height="20"></rect><rect data-element-id="element-id-98052" stroke-width="2" fill="transparent" class="invisible-element-box individual-element" x="473" y="229" width="12" height="20"></rect><rect data-element-id="element-id-8403" stroke-width="2" fill="transparent" class="invisible-element-box individual-element" x="247" y="199" width="1" height="72"></rect><rect data-element-id="element-id-93437" stroke-width="2" fill="transparent" class="invisible-element-box individual-element" x="276" y="264" width="7" height="7"></rect><rect data-element-id="element-id-6443" stroke-width="2" fill="transparent" class="invisible-element-box individual-element" x="328" y="264" width="7" height="7"></rect><rect data-element-id="element-id-40648" stroke-width="2" fill="transparent" class="invisible-element-box individual-element" x="356" y="264" width="7" height="7"></rect><rect data-element-id="element-id-62552" stroke-width="2" fill="transparent" class="invisible-element-box individual-element" x="371" y="264" width="6" height="7"></rect><rect data-element-id="element-id-92098" stroke-width="2" fill="transparent" class="invisible-element-box individual-element" x="291" y="264" width="5" height="7"></rect><rect data-element-id="element-id-16282" stroke-width="2" fill="transparent" class="invisible-element-box individual-element" x="302" y="264" width="5" height="7"></rect><rect data-element-id="element-id-26973" stroke-width="2" fill="transparent" class="invisible-element-box individual-element" x="315" y="264" width="5" height="7"></rect><rect data-element-id="element-id-97802" stroke-width="2" fill="transparent" class="invisible-element-box individual-element" x="343" y="264" width="5" height="7"></rect><rect data-element-id="element-id-75635" stroke-width="2" fill="transparent" class="invisible-element-box individual-element" x="385" y="264" width="5" height="7"></rect><rect data-element-id="element-id-92688" stroke-width="2" fill="transparent" class="invisible-element-box individual-element" x="414" y="264" width="5" height="7"></rect><rect data-element-id="element-id-91672" stroke-width="2" fill="transparent" class="invisible-element-box individual-element" x="403" y="264" width="4" height="7"></rect><rect data-element-id="element-id-49377" stroke-width="2" fill="transparent" class="invisible-element-box individual-element" x="350" y="216" width="3" height="3"></rect><rect data-element-id="element-id-83641" stroke-width="2" fill="transparent" class="invisible-element-box individual-element" x="406" y="216" width="3" height="3"></rect><rect data-element-id="element-id-69422" stroke-width="2" fill="transparent" class="invisible-element-box individual-element" x="397" y="264" width="1" height="7"></rect></svg>