<?xml version="1.0" encoding="UTF-8" standalone="no"?>
<!DOCTYPE svg PUBLIC "-//W3C//DTD SVG 1.1//EN" "http://www.w3.org/Graphics/SVG/1.1/DTD/svg11.dtd">
<svg width="100%" height="100%" viewBox="0 0 550 470" version="1.1" xmlns="http://www.w3.org/2000/svg" xmlns:xlink="http://www.w3.org/1999/xlink" xml:space="preserve" xmlns:serif="http://www.serif.com/" style="fill-rule:evenodd;clip-rule:evenodd;stroke-linejoin:round;stroke-miterlimit:2;">
    <g>
        <g>
            <g id="element-id-23736">
                <path id="element-id-93437" d="M279.51,264.788C279.14,264.788 278.803,264.852 278.497,264.98C278.191,265.108 277.909,265.302 277.65,265.562C277.39,265.821 277.197,266.103 277.07,266.407C276.944,266.711 276.88,267.048 276.88,267.418C276.88,268.145 277.137,268.765 277.65,269.278C278.162,269.791 278.782,270.047 279.51,270.047C280.237,270.047 280.857,269.791 281.37,269.278C281.883,268.765 282.139,268.145 282.139,267.418C282.139,266.693 281.883,266.074 281.37,265.562C280.854,265.046 280.234,264.788 279.51,264.788ZM283.088,267.418C283.088,268.404 282.737,269.248 282.037,269.949C281.339,270.646 280.497,270.995 279.51,270.995C278.52,270.995 277.676,270.646 276.979,269.949C276.281,269.251 275.932,268.407 275.932,267.418C275.932,266.431 276.281,265.588 276.979,264.891C277.679,264.19 278.523,263.84 279.51,263.84C280.494,263.84 281.336,264.19 282.037,264.891C282.388,265.243 282.652,265.627 282.826,266.045C283,266.462 283.088,266.92 283.088,267.417L283.088,267.418Z" style="fill:white;fill-rule:nonzero;"/>
                <path id="element-id-92098" d="M291.772,264.788L291.772,267.288L293.024,267.288C293.197,267.288 293.359,267.255 293.511,267.189C293.663,267.124 293.795,267.034 293.907,266.919C294.019,266.804 294.108,266.671 294.173,266.521C294.239,266.37 294.272,266.21 294.272,266.04C294.272,265.867 294.239,265.705 294.173,265.553C294.108,265.401 294.018,265.268 293.905,265.155C293.792,265.041 293.659,264.952 293.507,264.886C293.355,264.821 293.194,264.788 293.024,264.788L291.772,264.788ZM290.824,270.521L290.824,264.314C290.824,264.248 290.836,264.186 290.859,264.128C290.883,264.07 290.917,264.019 290.96,263.976C291.003,263.933 291.053,263.899 291.11,263.876C291.166,263.852 291.229,263.84 291.298,263.84L293.024,263.84C293.325,263.84 293.609,263.898 293.876,264.014C294.143,264.131 294.375,264.289 294.573,264.488C294.772,264.688 294.929,264.921 295.045,265.188C295.162,265.455 295.22,265.739 295.22,266.04C295.22,266.237 295.195,266.428 295.146,266.615C295.097,266.801 295.024,266.977 294.927,267.142C294.83,267.308 294.709,267.461 294.565,267.603C294.42,267.745 294.252,267.869 294.061,267.977L295.488,270.262C295.539,270.345 295.564,270.432 295.564,270.521C295.564,270.59 295.552,270.652 295.528,270.709C295.504,270.766 295.471,270.816 295.428,270.859C295.384,270.902 295.334,270.936 295.276,270.959C295.217,270.983 295.156,270.995 295.09,270.995C294.923,270.995 294.787,270.918 294.683,270.763L293.104,268.236L291.772,268.236L291.772,270.521C291.772,270.652 291.725,270.764 291.633,270.857C291.541,270.949 291.429,270.995 291.298,270.995C291.166,270.995 291.055,270.949 290.962,270.857C290.87,270.764 290.824,270.652 290.824,270.521L290.824,270.521Z" style="fill:white;fill-rule:nonzero;"/>
                <path id="element-id-16282" d="M307.064,264.788L305.297,264.788L305.297,270.521C305.297,270.652 305.251,270.764 305.159,270.857C305.066,270.949 304.955,270.995 304.823,270.995C304.692,270.995 304.58,270.949 304.488,270.857C304.395,270.764 304.349,270.652 304.349,270.521L304.349,264.788L302.583,264.788C302.452,264.788 302.34,264.742 302.247,264.649C302.155,264.557 302.109,264.445 302.109,264.314C302.109,264.183 302.155,264.071 302.247,263.978C302.34,263.886 302.452,263.84 302.583,263.84L307.064,263.84C307.195,263.84 307.307,263.886 307.399,263.978C307.492,264.071 307.538,264.183 307.538,264.314C307.538,264.445 307.492,264.557 307.399,264.649C307.307,264.742 307.195,264.788 307.064,264.788L307.064,264.788Z" style="fill:white;fill-rule:nonzero;"/>
                <path id="element-id-26973" d="M319.872,270.521C319.872,270.652 319.826,270.764 319.733,270.857C319.641,270.949 319.529,270.995 319.398,270.995C319.267,270.995 319.155,270.949 319.063,270.857C318.97,270.764 318.924,270.652 318.924,270.521L318.924,267.892L315.735,267.892L315.735,270.521C315.735,270.652 315.689,270.764 315.597,270.857C315.504,270.949 315.393,270.995 315.261,270.995C315.13,270.995 315.018,270.949 314.926,270.857C314.834,270.764 314.787,270.652 314.787,270.521L314.787,264.314C314.787,264.183 314.834,264.071 314.926,263.978C315.018,263.886 315.13,263.84 315.261,263.84C315.393,263.84 315.504,263.886 315.597,263.978C315.689,264.071 315.735,264.183 315.735,264.314L315.735,266.943L318.924,266.943L318.924,264.314C318.924,264.183 318.97,264.071 319.063,263.978C319.155,263.886 319.267,263.84 319.398,263.84C319.529,263.84 319.641,263.886 319.733,263.978C319.826,264.071 319.872,264.183 319.872,264.314L319.872,270.521Z" style="fill:white;fill-rule:nonzero;"/>
                <path id="element-id-6443" d="M331.232,264.788C330.862,264.788 330.525,264.852 330.219,264.98C329.913,265.108 329.631,265.302 329.372,265.562C329.112,265.821 328.919,266.103 328.792,266.407C328.666,266.711 328.602,267.048 328.602,267.418C328.602,268.145 328.859,268.765 329.372,269.278C329.884,269.791 330.505,270.047 331.232,270.047C331.959,270.047 332.58,269.791 333.092,269.278C333.605,268.765 333.862,268.145 333.862,267.418C333.862,266.693 333.605,266.074 333.092,265.562C332.577,265.046 331.956,264.788 331.232,264.788ZM334.81,267.418C334.81,268.404 334.459,269.248 333.759,269.949C333.061,270.646 332.219,270.995 331.232,270.995C330.242,270.995 329.398,270.646 328.701,269.949C328.003,269.251 327.654,268.407 327.654,267.418C327.654,266.431 328.003,265.588 328.701,264.891C329.401,264.19 330.245,263.84 331.232,263.84C332.216,263.84 333.058,264.19 333.759,264.891C334.111,265.243 334.374,265.627 334.548,266.045C334.722,266.462 334.81,266.92 334.81,267.417L334.81,267.418Z" style="fill:white;fill-rule:nonzero;"/>
                <path id="element-id-97802" d="M344.617,270.047C345.341,270.047 345.96,269.791 346.473,269.278C346.732,269.019 346.926,268.736 347.054,268.43C347.182,268.125 347.247,267.787 347.247,267.418C347.247,266.696 346.989,266.077 346.473,265.562C345.957,265.046 345.338,264.788 344.617,264.788L343.714,264.788L343.714,270.047L344.617,270.047ZM344.617,263.84C345.601,263.84 346.443,264.19 347.144,264.891C347.495,265.243 347.759,265.626 347.933,266.042C348.107,266.458 348.195,266.917 348.195,267.418C348.195,268.404 347.844,269.248 347.144,269.949C346.446,270.646 345.604,270.995 344.617,270.995L343.24,270.995C343.174,270.995 343.112,270.983 343.054,270.957C342.996,270.932 342.945,270.898 342.902,270.857C342.859,270.815 342.824,270.765 342.799,270.707C342.774,270.649 342.761,270.587 342.761,270.521L342.761,264.314C342.761,264.248 342.774,264.186 342.799,264.128C342.824,264.07 342.859,264.02 342.902,263.978C342.945,263.937 342.996,263.903 343.054,263.878C343.112,263.853 343.174,263.84 343.24,263.84L344.617,263.84Z" style="fill:white;fill-rule:nonzero;"/>
                <path id="element-id-40648" d="M359.674,264.788C359.304,264.788 358.966,264.852 358.661,264.98C358.355,265.108 358.073,265.302 357.813,265.562C357.554,265.821 357.361,266.103 357.234,266.407C357.107,266.711 357.044,267.048 357.044,267.418C357.044,268.145 357.3,268.765 357.813,269.278C358.326,269.791 358.946,270.047 359.674,270.047C360.401,270.047 361.021,269.791 361.534,269.278C362.047,268.765 362.303,268.145 362.303,267.418C362.303,266.693 362.047,266.074 361.534,265.562C361.018,265.046 360.398,264.788 359.674,264.788ZM363.251,267.418C363.251,268.404 362.901,269.248 362.2,269.949C361.503,270.646 360.66,270.995 359.674,270.995C358.684,270.995 357.84,270.646 357.142,269.949C356.445,269.251 356.096,268.407 356.096,267.418C356.096,266.431 356.445,265.588 357.142,264.891C357.843,264.19 358.687,263.84 359.674,263.84C360.657,263.84 361.5,264.19 362.2,264.891C362.552,265.243 362.815,265.627 362.99,266.045C363.164,266.462 363.251,266.92 363.251,267.417L363.251,267.418Z" style="fill:white;fill-rule:nonzero;"/>
                <path id="element-id-62552" d="M371.313,270.521L371.313,264.314C371.313,264.248 371.325,264.186 371.349,264.128C371.373,264.07 371.406,264.019 371.45,263.976C371.493,263.933 371.543,263.899 371.599,263.876C371.656,263.852 371.719,263.84 371.787,263.84C371.927,263.84 372.05,263.898 372.154,264.014L376.143,269.144L376.143,264.314C376.143,264.183 376.189,264.071 376.282,263.978C376.374,263.886 376.486,263.84 376.617,263.84C376.748,263.84 376.86,263.886 376.952,263.978C377.045,264.071 377.091,264.183 377.091,264.314L377.091,270.521C377.091,270.59 377.079,270.652 377.055,270.709C377.031,270.766 376.998,270.816 376.955,270.859C376.911,270.902 376.861,270.936 376.803,270.959C376.744,270.983 376.683,270.995 376.617,270.995C376.477,270.995 376.356,270.94 376.255,270.83L372.261,265.7L372.261,270.521C372.261,270.652 372.215,270.764 372.123,270.857C372.03,270.949 371.918,270.995 371.787,270.995C371.656,270.995 371.544,270.949 371.452,270.857C371.359,270.764 371.313,270.652 371.313,270.521Z" style="fill:white;fill-rule:nonzero;"/>
                <path id="element-id-75635" d="M389.525,264.788L387.759,264.788L387.759,270.521C387.759,270.652 387.713,270.764 387.62,270.857C387.528,270.949 387.416,270.995 387.285,270.995C387.154,270.995 387.042,270.949 386.949,270.857C386.857,270.764 386.811,270.652 386.811,270.521L386.811,264.788L385.044,264.788C384.913,264.788 384.801,264.742 384.709,264.649C384.616,264.557 384.57,264.445 384.57,264.314C384.57,264.183 384.616,264.071 384.709,263.978C384.801,263.886 384.913,263.84 385.044,263.84L389.525,263.84C389.656,263.84 389.768,263.886 389.861,263.978C389.953,264.071 389.999,264.183 389.999,264.314C389.999,264.445 389.953,264.557 389.861,264.649C389.768,264.742 389.656,264.788 389.525,264.788L389.525,264.788Z" style="fill:white;fill-rule:nonzero;"/>
                <path id="element-id-69422" d="M397.456,270.521C397.456,270.652 397.409,270.764 397.317,270.857C397.225,270.949 397.113,270.995 396.982,270.995C396.85,270.995 396.739,270.949 396.646,270.857C396.554,270.764 396.508,270.652 396.508,270.521L396.508,264.314C396.508,264.183 396.554,264.071 396.646,263.978C396.739,263.886 396.85,263.84 396.982,263.84C397.113,263.84 397.225,263.886 397.317,263.978C397.409,264.071 397.456,264.183 397.456,264.314L397.456,270.521Z" style="fill:white;fill-rule:nonzero;"/>
                <path id="element-id-91672" d="M405.354,267.511C404.921,267.383 404.595,267.218 404.374,267.015C404.154,266.812 403.999,266.604 403.912,266.391C403.824,266.178 403.78,265.952 403.78,265.714C403.78,265.421 403.835,265.157 403.945,264.92C404.055,264.683 404.218,264.472 404.433,264.287L404.428,264.287C404.771,263.989 405.173,263.84 405.636,263.84C405.785,263.84 405.934,263.858 406.083,263.896C406.232,263.933 406.376,263.99 406.514,264.066C406.653,264.142 406.783,264.236 406.903,264.35C407.024,264.463 407.132,264.596 407.228,264.748C407.272,264.825 407.295,264.91 407.295,265.003C407.295,265.071 407.283,265.134 407.259,265.19C407.235,265.247 407.202,265.297 407.158,265.34C407.115,265.383 407.064,265.417 407.006,265.441C406.948,265.465 406.886,265.477 406.821,265.477C406.761,265.477 406.708,265.468 406.662,265.45C406.616,265.432 406.574,265.407 406.537,265.374C406.499,265.341 406.464,265.303 406.429,265.26C406.395,265.217 406.359,265.167 406.32,265.11C406.248,265.006 406.151,264.927 406.027,264.875C405.903,264.823 405.77,264.797 405.627,264.797C405.513,264.797 405.403,264.82 405.296,264.866C405.188,264.912 405.093,264.976 405.009,265.056C404.926,265.137 404.858,265.232 404.806,265.342C404.754,265.453 404.728,265.572 404.728,265.7C404.728,265.93 404.791,266.111 404.918,266.244C405.044,266.376 405.263,266.487 405.573,266.577C406.098,266.726 406.509,266.932 406.807,267.194C407.105,267.456 407.308,267.714 407.415,267.968C407.523,268.221 407.576,268.488 407.576,268.768C407.576,269.466 407.319,270.032 406.803,270.467L406.807,270.467C406.393,270.819 405.922,270.995 405.394,270.995C405.218,270.995 405.042,270.974 404.866,270.93C404.69,270.887 404.521,270.824 404.359,270.74C404.196,270.657 404.044,270.552 403.903,270.427C403.761,270.302 403.638,270.16 403.534,270.002C403.471,269.922 403.44,269.826 403.44,269.716C403.44,269.651 403.452,269.589 403.476,269.531C403.499,269.472 403.533,269.422 403.576,269.379C403.619,269.335 403.669,269.302 403.726,269.278C403.783,269.254 403.845,269.242 403.914,269.242C404.09,269.242 404.222,269.315 404.312,269.461C404.437,269.655 404.594,269.801 404.781,269.9C404.969,269.998 405.172,270.047 405.39,270.047C405.56,270.047 405.72,270.014 405.87,269.946C406.021,269.879 406.152,269.789 406.264,269.676C406.376,269.563 406.464,269.429 406.53,269.276C406.596,269.122 406.628,268.959 406.628,268.786C406.628,268.622 406.598,268.468 406.537,268.323C406.476,268.179 406.358,268.035 406.183,267.894C406.009,267.752 405.732,267.625 405.354,267.511L405.354,267.511Z" style="fill:white;fill-rule:nonzero;"/>
                <path id="element-id-92688" d="M419.446,264.788L417.68,264.788L417.68,270.521C417.68,270.652 417.633,270.764 417.541,270.857C417.449,270.949 417.337,270.995 417.206,270.995C417.074,270.995 416.963,270.949 416.87,270.857C416.778,270.764 416.732,270.652 416.732,270.521L416.732,264.788L414.965,264.788C414.834,264.788 414.722,264.742 414.63,264.649C414.537,264.557 414.491,264.445 414.491,264.314C414.491,264.183 414.537,264.071 414.63,263.978C414.722,263.886 414.834,263.84 414.965,263.84L419.446,263.84C419.577,263.84 419.689,263.886 419.782,263.978C419.874,264.071 419.92,264.183 419.92,264.314C419.92,264.445 419.874,264.557 419.782,264.649C419.689,264.742 419.577,264.788 419.446,264.788L419.446,264.788Z" style="fill:white;fill-rule:nonzero;"/>
            </g>
            <g id="element-id-99865">
                <path id="element-id-97635" d="M275.932,219.218L275.932,199.357L283.424,199.357C284.743,199.357 285.75,199.42 286.445,199.547C287.421,199.709 288.238,200.019 288.897,200.475C289.557,200.931 290.087,201.57 290.489,202.392C290.891,203.214 291.092,204.117 291.092,205.101C291.092,206.79 290.555,208.22 289.48,209.389C288.405,210.559 286.463,211.144 283.654,211.144L278.56,211.144L278.56,219.218L275.932,219.218ZM278.56,208.8L283.695,208.8C285.393,208.8 286.599,208.484 287.312,207.851C288.026,207.219 288.383,206.33 288.383,205.183C288.383,204.352 288.173,203.64 287.753,203.049C287.333,202.457 286.779,202.067 286.093,201.877C285.65,201.76 284.833,201.701 283.641,201.701L278.56,201.701L278.56,208.8Z" style="fill:rgb(186,187,177);fill-rule:nonzero;"/>
                <path id="element-id-2104" d="M294.479,219.218L294.479,199.357L303.285,199.357C305.055,199.357 306.401,199.535 307.322,199.892C308.243,200.249 308.98,200.879 309.53,201.782C310.081,202.685 310.357,203.683 310.357,204.776C310.357,206.185 309.901,207.373 308.989,208.339C308.076,209.306 306.667,209.92 304.762,210.182C305.457,210.516 305.985,210.845 306.347,211.171C307.114,211.875 307.842,212.756 308.528,213.812L311.983,219.218L308.677,219.218L306.049,215.086C305.281,213.894 304.649,212.981 304.152,212.349C303.655,211.717 303.21,211.274 302.818,211.022C302.425,210.769 302.025,210.593 301.619,210.493C301.321,210.43 300.833,210.398 300.155,210.398L297.107,210.398L297.107,219.218L294.479,219.218ZM297.107,208.122L302.757,208.122C303.958,208.122 304.897,207.998 305.575,207.75C306.252,207.501 306.767,207.104 307.119,206.558C307.471,206.011 307.647,205.417 307.647,204.776C307.647,203.837 307.306,203.065 306.624,202.459C305.943,201.854 304.866,201.552 303.393,201.552L297.107,201.552L297.107,208.122Z" style="fill:rgb(186,187,177);fill-rule:nonzero;"/>
                <path id="element-id-63643" d="M313.676,209.545C313.676,206.248 314.561,203.667 316.331,201.802C318.102,199.937 320.387,199.005 323.187,199.005C325.02,199.005 326.673,199.443 328.145,200.319C329.617,201.195 330.739,202.417 331.512,203.984C332.284,205.551 332.67,207.328 332.67,209.315C332.67,211.329 332.263,213.131 331.451,214.72C330.638,216.31 329.486,217.513 327.996,218.331C326.506,219.148 324.898,219.557 323.173,219.557C321.303,219.557 319.633,219.105 318.16,218.202C316.688,217.299 315.573,216.066 314.814,214.503C314.055,212.941 313.676,211.288 313.676,209.545L313.676,209.545ZM316.386,209.586C316.386,211.979 317.029,213.864 318.316,215.242C319.603,216.619 321.218,217.308 323.159,217.308C325.137,217.308 326.765,216.612 328.043,215.221C329.321,213.83 329.96,211.857 329.96,209.301C329.96,207.684 329.687,206.273 329.141,205.067C328.594,203.862 327.795,202.927 326.743,202.263C325.691,201.599 324.51,201.267 323.2,201.267C321.34,201.267 319.739,201.906 318.397,203.184C317.056,204.462 316.386,206.596 316.386,209.586L316.386,209.586Z" style="fill:rgb(186,187,177);fill-rule:nonzero;"/>
                <path id="element-id-41189" d="M336.192,219.218L336.192,199.357L349.591,199.357L349.591,201.701L338.821,201.701L338.821,207.851L348.141,207.851L348.141,210.195L338.821,210.195L338.821,219.218L336.192,219.218Z" style="fill:rgb(186,187,177);fill-rule:nonzero;"/>
                <rect id="element-id-49377" x="350.309" y="216.441" width="2.777" height="2.777" style="fill:rgb(186,187,177);fill-rule:nonzero;"/>
                <path id="element-id-5308" d="M365.347,219.218L365.347,199.357L372.188,199.357C373.733,199.357 374.912,199.452 375.724,199.642C376.862,199.903 377.833,200.378 378.637,201.064C379.685,201.949 380.468,203.08 380.988,204.458C381.507,205.835 381.767,207.409 381.767,209.179C381.767,210.687 381.591,212.024 381.238,213.189C380.886,214.354 380.434,215.318 379.884,216.082C379.333,216.845 378.73,217.445 378.075,217.884C377.42,218.322 376.63,218.653 375.704,218.879C374.778,219.105 373.715,219.218 372.514,219.218L365.347,219.218ZM367.975,216.874L372.216,216.874C373.525,216.874 374.553,216.752 375.298,216.508C376.043,216.265 376.637,215.921 377.079,215.479C377.702,214.856 378.188,214.018 378.536,212.966C378.883,211.914 379.057,210.638 379.057,209.138C379.057,207.061 378.716,205.465 378.034,204.349C377.352,203.234 376.524,202.487 375.548,202.107C374.844,201.836 373.71,201.701 372.148,201.701L367.975,201.701L367.975,216.874Z" style="fill:rgb(186,187,177);fill-rule:nonzero;"/>
                <path id="element-id-64170" d="M385.425,219.218L385.425,199.357L394.231,199.357C396.001,199.357 397.347,199.535 398.268,199.892C399.189,200.249 399.925,200.879 400.476,201.782C401.027,202.685 401.302,203.683 401.302,204.776C401.302,206.185 400.846,207.373 399.934,208.339C399.022,209.306 397.613,209.92 395.707,210.182C396.403,210.516 396.931,210.845 397.292,211.171C398.06,211.875 398.787,212.756 399.473,213.812L402.928,219.218L399.623,219.218L396.994,215.086C396.227,213.894 395.594,212.981 395.098,212.349C394.601,211.717 394.156,211.274 393.763,211.022C393.37,210.769 392.971,210.593 392.564,210.493C392.266,210.43 391.778,210.398 391.101,210.398L388.053,210.398L388.053,219.218L385.425,219.218ZM388.053,208.122L393.702,208.122C394.903,208.122 395.843,207.998 396.52,207.75C397.197,207.501 397.712,207.104 398.065,206.558C398.417,206.011 398.593,205.417 398.593,204.776C398.593,203.837 398.252,203.065 397.57,202.459C396.888,201.854 395.811,201.552 394.339,201.552L388.053,201.552L388.053,208.122Z" style="fill:rgb(186,187,177);fill-rule:nonzero;"/>
                <rect id="element-id-83641" x="405.8" y="216.441" width="2.777" height="2.777" style="fill:rgb(186,187,177);fill-rule:nonzero;"/>
                <path id="element-id-54798" d="M282.476,248.754L282.476,231.236L275.932,231.236L275.932,228.893L291.675,228.893L291.675,231.236L285.104,231.236L285.104,248.754L282.476,248.754Z" style="fill:white;fill-rule:nonzero;"/>
                <path id="element-id-6670" d="M290.13,248.754L297.758,228.893L300.589,228.893L308.718,248.754L305.724,248.754L303.407,242.738L295.102,242.738L292.921,248.754L290.13,248.754ZM295.861,240.598L302.594,240.598L300.521,235.098C299.889,233.427 299.419,232.054 299.112,230.979C298.859,232.253 298.503,233.517 298.042,234.772L295.861,240.598Z" style="fill:white;fill-rule:nonzero;"/>
                <path id="element-id-8260" d="M310.79,248.754L310.79,228.893L313.486,228.893L323.918,244.486L323.918,228.893L326.438,228.893L326.438,248.754L323.742,248.754L313.31,233.147L313.31,248.754L310.79,248.754Z" style="fill:white;fill-rule:nonzero;"/>
                <path id="element-id-1877" d="M345.025,241.79L347.654,242.454C347.103,244.613 346.111,246.259 344.68,247.392C343.248,248.526 341.498,249.092 339.43,249.092C337.29,249.092 335.549,248.657 334.208,247.785C332.866,246.913 331.846,245.651 331.146,243.998C330.446,242.346 330.096,240.571 330.096,238.674C330.096,236.606 330.491,234.802 331.281,233.262C332.072,231.722 333.196,230.552 334.655,229.753C336.113,228.954 337.719,228.554 339.471,228.554C341.458,228.554 343.129,229.06 344.483,230.071C345.838,231.083 346.782,232.505 347.315,234.339L344.727,234.949C344.267,233.503 343.598,232.451 342.722,231.792C341.846,231.133 340.744,230.803 339.417,230.803C337.89,230.803 336.614,231.169 335.589,231.9C334.564,232.632 333.844,233.614 333.429,234.847C333.013,236.08 332.805,237.351 332.805,238.661C332.805,240.35 333.051,241.824 333.544,243.084C334.036,244.344 334.801,245.285 335.84,245.909C336.879,246.532 338.003,246.843 339.213,246.843C340.686,246.843 341.932,246.419 342.953,245.57C343.973,244.721 344.664,243.461 345.025,241.79L345.025,241.79Z" style="fill:white;fill-rule:nonzero;"/>
                <path id="element-id-80697" d="M348.71,248.754L356.338,228.893L359.169,228.893L367.298,248.754L364.304,248.754L361.987,242.738L353.682,242.738L351.501,248.754L348.71,248.754ZM354.441,240.598L361.174,240.598L359.101,235.098C358.469,233.427 358,232.054 357.692,230.979C357.44,232.253 357.083,233.517 356.622,234.772L354.441,240.598Z" style="fill:white;fill-rule:nonzero;"/>
                <path id="element-id-85449" d="M369.371,248.754L369.371,228.893L372.067,228.893L382.498,244.486L382.498,228.893L385.018,228.893L385.018,248.754L382.322,248.754L371.89,233.147L371.89,248.754L369.371,248.754Z" style="fill:white;fill-rule:nonzero;"/>
                <path id="element-id-36987" d="M410.176,228.893L412.804,228.893L412.804,240.368C412.804,242.364 412.579,243.949 412.127,245.123C411.675,246.297 410.86,247.252 409.682,247.988C408.503,248.724 406.956,249.092 405.042,249.092C403.181,249.092 401.659,248.772 400.476,248.13C399.293,247.489 398.448,246.561 397.943,245.346C397.437,244.132 397.184,242.472 397.184,240.368L397.184,228.893L399.812,228.893L399.812,240.354C399.812,242.079 399.972,243.35 400.293,244.168C400.614,244.985 401.165,245.615 401.946,246.058C402.727,246.5 403.682,246.721 404.811,246.721C406.744,246.721 408.121,246.283 408.943,245.407C409.765,244.531 410.176,242.847 410.176,240.354L410.176,228.893Z" style="fill:white;fill-rule:nonzero;"/>
                <path id="element-id-14224" d="M422.776,248.754L422.776,240.341L415.121,228.893L418.318,228.893L422.234,234.881C422.956,236.001 423.629,237.121 424.252,238.241C424.848,237.202 425.571,236.032 426.42,234.732L430.267,228.893L433.329,228.893L425.404,240.341L425.404,248.754L422.776,248.754Z" style="fill:white;fill-rule:nonzero;"/>
                <path id="element-id-4818" d="M434.792,242.373L437.272,242.156C437.389,243.149 437.662,243.965 438.091,244.601C438.52,245.238 439.186,245.753 440.089,246.146C440.993,246.539 442.009,246.735 443.138,246.735C444.14,246.735 445.025,246.586 445.793,246.288C446.561,245.99 447.132,245.581 447.507,245.062C447.882,244.543 448.069,243.976 448.069,243.362C448.069,242.738 447.888,242.194 447.527,241.729C447.166,241.264 446.57,240.873 445.739,240.557C445.206,240.35 444.027,240.027 442.203,239.589C440.378,239.151 439.1,238.737 438.369,238.349C437.421,237.852 436.714,237.236 436.249,236.5C435.784,235.764 435.551,234.94 435.551,234.027C435.551,233.025 435.835,232.088 436.404,231.216C436.973,230.345 437.804,229.683 438.897,229.231C439.99,228.78 441.205,228.554 442.542,228.554C444.014,228.554 445.312,228.791 446.437,229.265C447.561,229.739 448.426,230.437 449.031,231.358C449.636,232.28 449.961,233.323 450.006,234.488L447.486,234.678C447.351,233.422 446.893,232.474 446.111,231.833C445.33,231.191 444.176,230.871 442.65,230.871C441.06,230.871 439.902,231.162 439.175,231.745C438.448,232.327 438.084,233.029 438.084,233.851C438.084,234.565 438.342,235.152 438.857,235.612C439.362,236.073 440.683,236.545 442.819,237.028C444.955,237.511 446.421,237.934 447.216,238.295C448.372,238.828 449.225,239.503 449.776,240.32C450.327,241.138 450.602,242.079 450.602,243.145C450.602,244.202 450.3,245.197 449.695,246.132C449.09,247.067 448.22,247.794 447.087,248.313C445.953,248.833 444.678,249.092 443.26,249.092C441.462,249.092 439.956,248.83 438.741,248.307C437.527,247.783 436.574,246.995 435.883,245.943C435.192,244.89 434.828,243.7 434.792,242.373L434.792,242.373Z" style="fill:white;fill-rule:nonzero;"/>
                <path id="element-id-71273" d="M452.011,248.754L459.639,228.893L462.47,228.893L470.599,248.754L467.605,248.754L465.288,242.738L456.983,242.738L454.802,248.754L452.011,248.754ZM457.742,240.598L464.475,240.598L462.402,235.098C461.77,233.427 461.301,232.054 460.994,230.979C460.741,232.253 460.384,233.517 459.923,234.772L457.742,240.598Z" style="fill:white;fill-rule:nonzero;"/>
                <path id="element-id-98052" d="M472.59,248.754L472.59,228.893L475.219,228.893L475.219,246.41L485,246.41L485,248.754L472.59,248.754Z" style="fill:white;fill-rule:nonzero;"/>
            </g>
            <g id="element-id-89366">
                <path id="element-id-56743" d="M118.641,256.618C118.641,259.817 117.516,262.524 115.232,264.668C113.017,266.812 110.275,267.867 107.041,267.867C103.807,267.867 101.065,266.777 98.816,264.633C96.531,262.453 95.371,259.782 95.371,256.583L95.371,226.704C95.371,216.932 93.543,210.042 89.887,206.035C87.638,203.539 84.755,202.274 81.275,202.168C107.252,202.836 124.617,202.871 133.37,202.204C129.96,202.45 127.042,203.821 124.617,206.281C120.645,210.324 118.641,216.862 118.641,225.896L118.641,256.618ZM79.412,199.11C75.405,199.181 71.995,200.657 69.218,203.539C66.406,206.422 65,209.867 65,213.874C65,217.987 66.441,221.467 69.324,224.384C72.171,227.232 75.581,228.673 79.553,228.673L92.278,228.673L92.278,256.583C92.278,260.625 93.719,264.035 96.566,266.812C99.413,269.589 102.893,270.995 107.041,270.995C111.084,270.995 114.529,269.659 117.341,266.988C120.258,264.211 121.735,260.625 121.735,256.302L121.735,228.602C130.171,228.602 134.354,228.602 134.319,228.602C138.361,228.602 141.841,227.161 144.689,224.244C147.571,221.361 149.012,217.881 149.012,213.804C149.012,209.726 147.571,206.246 144.689,203.328C141.841,200.446 138.361,199.005 134.319,199.005C97.832,199.005 79.518,199.04 79.412,199.11L79.412,199.11ZM158.995,213.101C158.995,210.042 160.085,207.406 162.229,205.227C164.409,203.082 167.01,201.993 170.068,201.993C173.126,201.993 175.727,203.047 177.942,205.156C180.121,207.301 181.211,209.796 181.211,212.714L181.211,251.592C181.211,256.759 182.512,260.872 185.148,263.965C187.152,266.32 189.366,267.691 191.792,268.007C182.758,268.007 175.024,264.773 168.592,258.341C162.194,251.908 158.995,244.104 158.995,235L158.995,213.101ZM203.532,203.258C200.826,206.035 199.455,209.339 199.455,213.101L199.455,235C199.455,237.144 198.716,238.937 197.205,240.448C195.693,241.96 193.901,242.698 191.792,242.698C189.683,242.698 187.89,241.96 186.413,240.448C184.902,238.937 184.164,237.144 184.164,235L184.164,213.101C184.164,209.339 182.793,206.07 180.086,203.293C177.309,200.446 173.97,199.005 170.068,199.005C166.201,199.005 162.897,200.376 160.155,203.153C157.413,205.895 156.042,209.199 156.042,213.101L156.042,235C156.042,244.913 159.522,253.384 166.518,260.45C173.513,267.48 181.949,270.995 191.792,270.995C201.669,270.995 210.07,267.48 217.066,260.45C224.061,253.384 227.576,244.913 227.576,235L227.576,213.101C227.576,209.199 226.205,205.895 223.463,203.153C220.721,200.376 217.417,199.005 213.55,199.005C209.649,199.005 206.309,200.411 203.532,203.258L203.532,203.258Z" style="fill:rgb(186,187,177);fill-rule:nonzero;"/>
            </g>
            <rect id="element-id-8403" x="246.918" y="199.005" width="1.059" height="71.99" style="fill:rgb(186,187,177);fill-rule:nonzero;"/>
        </g>
    </g>
    <rect x="65" y="199" width="163" height="72" style="fill:none;"/>
    <rect x="65" y="199" width="163" height="72" style="fill:none;"/>
    <rect x="276" y="199" width="209" height="50" style="fill:none;"/>
    <rect x="276" y="264" width="144" height="7" style="fill:none;"/>
    <rect x="314" y="199" width="19" height="21" style="fill:none;"/>
    <rect x="290" y="229" width="19" height="20" style="fill:none;"/>
    <rect x="349" y="229" width="19" height="20" style="fill:none;"/>
    <rect x="452" y="229" width="19" height="20" style="fill:none;"/>
    <rect x="330" y="229" width="18" height="21" style="fill:none;"/>
    <rect x="294" y="199" width="18" height="20" style="fill:none;"/>
    <rect x="385" y="199" width="18" height="20" style="fill:none;"/>
    <rect x="415" y="229" width="18" height="20" style="fill:none;"/>
    <rect x="435" y="229" width="16" height="21" style="fill:none;"/>
    <rect x="365" y="199" width="16" height="20" style="fill:none;"/>
    <rect x="276" y="229" width="16" height="20" style="fill:none;"/>
    <rect x="311" y="229" width="16" height="20" style="fill:none;"/>
    <rect x="369" y="229" width="16" height="20" style="fill:none;"/>
    <rect x="397" y="229" width="16" height="20" style="fill:none;"/>
    <rect x="276" y="199" width="15" height="20" style="fill:none;"/>
    <rect x="336" y="199" width="13" height="20" style="fill:none;"/>
    <rect x="473" y="229" width="12" height="20" style="fill:none;"/>
    <rect x="247" y="199" width="1" height="72" style="fill:none;"/>
    <rect x="276" y="264" width="7" height="7" style="fill:none;"/>
    <rect x="328" y="264" width="7" height="7" style="fill:none;"/>
    <rect x="356" y="264" width="7" height="7" style="fill:none;"/>
    <rect x="371" y="264" width="6" height="7" style="fill:none;"/>
    <rect x="291" y="264" width="5" height="7" style="fill:none;"/>
    <rect x="302" y="264" width="5" height="7" style="fill:none;"/>
    <rect x="315" y="264" width="5" height="7" style="fill:none;"/>
    <rect x="343" y="264" width="5" height="7" style="fill:none;"/>
    <rect x="385" y="264" width="5" height="7" style="fill:none;"/>
    <rect x="414" y="264" width="5" height="7" style="fill:none;"/>
    <rect x="403" y="264" width="4" height="7" style="fill:none;"/>
    <rect x="350" y="216" width="3" height="3" style="fill:none;"/>
    <rect x="406" y="216" width="3" height="3" style="fill:none;"/>
    <rect x="397" y="264" width="1" height="7" style="fill:none;"/>
</svg>
